<?xml version="1.0" encoding="UTF-8"?>
<!DOCTYPE svg PUBLIC "-//W3C//DTD SVG 1.1//EN" "http://www.w3.org/Graphics/SVG/1.1/DTD/svg11.dtd">
<!-- Creator: CorelDRAW 2019 (64-Bit) -->
<svg xmlns="http://www.w3.org/2000/svg" xml:space="preserve" width="350px" height="350px" version="1.1" style="shape-rendering:geometricPrecision; text-rendering:geometricPrecision; image-rendering:optimizeQuality; fill-rule:evenodd; clip-rule:evenodd"
viewBox="0 0 150 150"
 xmlns:xlink="http://www.w3.org/1999/xlink"
 xmlns:xodm="http://www.corel.com/coreldraw/odm/2003">
 <defs>
  <style type="text/css">
   <![CDATA[
    .fil1 {fill:#FEFEFE;fill-rule:nonzero}
    .fil0 {fill:#FFDD09;fill-rule:nonzero}
   ]]>
  </style>
 </defs>
 <g id="Layer_x0020_1">
  <metadata id="CorelCorpID_0Corel-Layer"/>
  <path class="fil0" d="M108.88 81.58l-1.54 29.11 -35.43 0 -18.88 0 -11.14 -0.39 0.49 -23.66 0 -12.67 0 -19.75c0,-0.32 -2.01,-9.49 -2.01,-9.49l0 -6.24 36.57 0 31.94 0.77 0 42.32zm-42.87 -67.9c0.31,0.27 0.66,0.6 0.92,0.92 0.1,0.13 0.14,0.25 0.22,0.39 0.16,0.25 0.39,0.43 0.43,0.75 0.03,0.25 -0.1,0.43 -0.12,0.67 -0.02,0.3 0.18,0.71 0.27,0.98 -0.19,-0.21 -0.35,-0.43 -0.52,-0.66 -0.1,-0.13 -0.46,-0.38 -0.51,-0.55 -0.03,-0.12 0,-0.32 0,-0.45 0,-0.19 0.03,-0.4 0,-0.6 -0.07,-0.58 -0.42,-1.02 -0.8,-1.4 -0.22,-0.21 -0.44,-0.43 -0.66,-0.65 0.24,0.21 0.52,0.37 0.77,0.6zm81.38 59.82c-0.35,-0.21 -0.47,-0.37 -0.65,-0.71 -0.13,-0.24 -0.23,-0.84 -0.5,-0.93 -0.22,0.26 -0.16,0.59 -0.39,0.83 -0.26,0.26 -0.74,0.22 -1.05,0.23 -1.05,0.06 -2.05,1.26 -2.81,2.1 0.11,-0.14 0.18,-0.3 0.29,-0.45 0.18,-0.24 0.39,-0.41 0.56,-0.65 0.08,-0.12 0.11,-0.24 0.21,-0.38 0.27,-0.37 0.6,-0.71 0.87,-1.08 0.53,-0.71 1.39,-2.13 0.34,-2.5 -0.61,-0.21 -1.18,-0.68 -1.54,-1.25 -0.09,-0.15 -0.27,-0.4 -0.34,-0.57 -0.09,-0.24 0.02,-0.5 -0.23,-0.67 -0.37,-0.26 -1.01,-0.05 -1.42,-0.25 -0.54,-0.26 -0.77,-0.62 -1.12,-1.07 -0.21,-0.27 -0.29,-0.6 -0.56,-0.83 -0.5,-0.41 -1.15,-0.61 -1.62,-1.09 -0.73,-0.71 -1.34,-1.45 -1.99,-2.22 -0.73,-0.88 -1.67,-1.54 -2.73,-1.99 -1.66,-0.72 -3.41,-1.79 -3.75,-3.76 -0.14,-0.81 -0.18,-1.92 -0.75,-2.5 -0.2,-0.21 -0.4,-0.46 -0.62,-0.63 -0.27,-0.2 -0.63,-0.23 -0.93,-0.42 -0.6,-0.38 -1.04,-0.93 -1.62,-1.32 -0.26,-0.17 -0.56,-0.29 -0.83,-0.45 -0.25,-0.15 -0.39,-0.3 -0.71,-0.31 -0.25,0 -0.97,0.23 -0.92,-0.23 0.44,-0.32 1.24,-0.17 1.72,-0.23 -0.06,-0.19 -0.49,-0.28 -0.64,-0.45 -0.25,-0.27 -0.39,-0.63 -0.63,-0.91 -0.27,-0.34 -0.6,-0.62 -0.99,-0.83 -1.17,-0.87 -2.35,-1.75 -3.52,-2.62 -0.51,-0.4 -0.54,-0.53 -0.87,-0.93 -0.56,-0.68 -1.29,-1.24 -1.9,-1.88 -0.67,-0.69 -1.12,-1.57 -1.77,-2.29 -0.55,-0.61 -1.12,-0.94 -1.71,-1.53 -1.11,-0.12 -1.42,-1.35 -1.87,-2.14 -0.23,-0.42 -0.65,-0.67 -1.06,-0.89 -1.61,-0.86 -3.11,-2.06 -4.24,-3.51 -0.36,-0.47 -0.56,-1 -1.05,-1.38 -0.6,-0.46 -1.57,-0.2 -2.18,-0.78 -0.65,-0.6 -0.6,-1.58 -0.84,-2.4 -0.2,-0.71 -0.76,-1.25 -1.19,-1.8 -0.47,-0.6 -0.86,-1.03 -1.39,-1.58 -0.3,-0.31 -0.63,-0.57 -0.86,-0.94 -0.22,-0.34 -0.25,-0.64 -0.7,-0.64 -0.23,0.01 -0.41,0.11 -0.68,0.08 -0.37,-0.05 -0.85,-0.05 -1.21,-0.15 -0.42,-0.13 -0.4,-0.43 -0.86,-0.14 -0.29,0.18 -0.4,0.59 -0.74,0.72 -0.29,0.1 -0.41,-0.04 -0.7,0.14 -0.39,0.25 -0.4,0.71 -0.7,0.99 -0.52,-0.21 -1.18,0.07 -1.63,0.49 0.48,-0.52 0.98,-1.13 1.58,-1.52 0.34,-0.22 0.73,-0.22 1.03,-0.52 0.26,-0.28 0.22,-0.63 0.42,-0.93 0.19,-0.29 0.33,-0.42 0.65,-0.52 0.23,-0.07 0.42,0.07 0.53,-0.22 -0.2,-0.38 -0.55,-0.57 -0.9,-0.78 -0.48,-0.29 -0.82,-0.9 -1.32,-1.12 -0.55,-0.24 -0.84,0.15 -1.2,-0.4 -0.39,-0.6 -0.88,-1.1 -1.4,-1.6 -0.3,-0.3 -0.41,-0.42 -0.83,-0.41 -0.26,0 -0.33,0.18 -0.6,0.04 -0.37,-0.2 -0.23,-0.73 -0.4,-1.06 -0.16,-0.33 -0.44,-0.55 -0.6,-0.89 -0.2,-0.44 -0.18,-0.44 -0.53,-0.79 -0.54,-0.54 -1.11,-1.39 -1.86,-1.57 -0.35,-0.08 -0.51,0.06 -0.85,-0.13 -0.3,-0.16 -0.91,-0.61 -1.19,-0.81 -0.66,-0.47 -0.83,-1.45 -1.33,-2.13 -0.34,-0.47 -0.59,-0.8 -1.16,-0.97 -0.35,-0.11 -0.84,-0.04 -1.11,-0.33 -0.38,-0.42 -0.05,-0.77 -0.21,-1.2 -0.1,-0.23 -0.28,-0.31 -0.44,-0.49 -0.53,-0.65 -0.79,-1.53 -1.2,-2.27 -0.44,-0.81 -0.18,-2.02 -0.84,-2.6 -0.46,-0.4 -1.27,-0.44 -1.76,-0.87 -0.26,-0.23 -0.49,-0.55 -0.74,-0.8 -0.17,0.17 -0.63,0.73 -0.76,0.93 -0.09,0.13 -0.12,0.29 -0.19,0.42 -0.21,0.36 -0.53,0.72 -0.83,1.01 -0.37,0.35 -0.63,0.79 -1,1.14 -0.39,0.36 -0.86,0.61 -1.26,0.96 -0.29,0.26 -0.58,0.41 -0.81,0.74 -0.18,0.27 -0.43,0.47 -0.62,0.73 -0.17,0.22 -0.28,0.47 -0.47,0.7 -0.22,0.26 -0.47,0.46 -0.7,0.71 -0.24,0.27 -0.4,0.62 -0.62,0.91 -0.38,0.51 -0.87,0.67 -1.43,0.9 -0.39,0.16 -0.41,0.15 -0.48,0.54 -0.09,0.52 -0.24,1.02 -0.35,1.52 -0.05,0.21 -0.08,0.46 -0.04,0.65 0.05,0.27 0.16,0.54 0.27,0.77 0.06,0.13 0.14,0.24 0.22,0.34 -0.13,-0.14 -0.27,-0.27 -0.41,-0.41 -0.27,-0.27 -0.54,-0.54 -0.81,-0.81 -0.16,-0.16 -0.35,-0.53 -0.59,-0.55 -0.29,-0.04 -0.94,0.74 -1.1,0.94 -0.15,0.2 -0.24,0.44 -0.39,0.63 -0.17,0.22 -0.36,0.24 -0.62,0.35 -0.32,0.13 -0.39,0.31 -0.63,0.61 -0.72,0.89 -1.61,1.67 -2.5,2.38 -0.26,0.22 -0.42,0.54 -0.64,0.79 -0.21,0.24 -0.12,0.2 -0.18,0.51 -0.07,0.33 -0.2,0.49 -0.47,0.68 -0.37,0.27 -0.67,0.56 -1,0.89 -0.25,0.25 -0.51,0.51 -0.76,0.76 -0.39,0.4 -0.84,0.7 -1.24,1.09 -0.22,0.22 -0.46,0.34 -0.7,0.56 -0.53,0.48 -1.13,0.9 -1.6,1.46 -0.21,0.25 -0.52,0.36 -0.74,0.59 -0.15,0.14 -0.25,0.33 -0.37,0.49 -0.28,0.36 -0.63,0.67 -0.96,0.98 -0.36,0.35 -0.63,0.72 -0.9,1.14 -0.34,0.52 -1.08,0.71 -1.62,0.96 -0.26,0.11 -0.52,0.23 -0.77,0.36 -0.17,0.09 -0.55,0.17 -0.64,0.34 0.33,0.19 0.73,0.16 1.1,0.26 0.25,0.06 0.48,0.18 0.73,0.24 0.22,0.05 0.53,0.09 0.74,-0.04 0.18,-0.11 0.32,-0.44 0.46,-0.6 0.17,-0.21 0.37,-0.38 0.56,-0.57 0.08,-0.09 0.2,-0.29 0.32,-0.34 0.19,-0.07 0.52,0.12 0.69,0.15 0.26,0.05 0.55,0.04 0.83,-0.01 0.25,-0.04 0.44,-0.04 0.7,-0.04 0.41,0.01 0.59,0.17 0.95,0.33 0.28,0.13 0.72,0.05 0.95,0.24 -0.32,0.23 -1.03,0.36 -1.39,0.34 -0.38,-0.02 -0.67,0.01 -0.98,-0.18 -0.5,-0.32 -0.67,-0.18 -1.2,0.18 -0.6,0.42 -1.3,0.64 -1.89,1.08 -0.11,0.08 -0.34,0.28 -0.44,0.42 -0.09,0.11 -0.11,0.25 -0.21,0.35 -0.22,0.19 -0.71,0.12 -0.96,0.12 -0.19,0 -0.59,-0.17 -0.79,-0.09 -0.12,0.05 -0.24,0.23 -0.32,0.32 -0.09,0.09 -0.2,0.27 -0.32,0.32 -0.22,0.08 -0.75,0.19 -0.97,0.18 -0.08,0.14 -0.04,0.3 -0.12,0.45 -0.03,0.05 -0.07,0.1 -0.11,0.15 -0.15,0.22 -0.28,0.47 -0.42,0.71 -0.07,0.14 -0.1,0.27 -0.24,0.36 -0.25,0.17 -0.53,0.12 -0.72,0.38 -0.13,0.18 -0.26,0.36 -0.41,0.53 -0.11,0.13 -0.28,0.24 -0.35,0.4 -0.06,0.15 -0.01,0.3 -0.11,0.43 -0.07,0.11 -0.21,0.21 -0.3,0.3 -0.15,0.15 -0.25,0.31 -0.39,0.46 -0.42,0.49 -0.94,1.01 -1.47,1.37 -0.23,0.16 -0.49,0.29 -0.68,0.5 -0.24,0.25 -0.52,0.44 -0.81,0.62 -0.48,0.28 -1.01,0.48 -1.48,0.79 -0.37,0.25 -0.62,0.65 -0.84,1.02 -0.12,0.21 -0.24,0.42 -0.4,0.61 -0.11,0.11 -0.27,0.2 -0.36,0.32 -0.12,0.17 -0.06,0.39 -0.05,0.58 0.18,0.14 0.41,0.25 0.62,0.37 0.21,0.13 0.41,0.24 0.64,0.32 0.5,0.18 0.97,0.39 1.46,0.55 0.16,0.05 0.27,0.1 0.43,0.1 0.13,0 0.19,0.02 0.31,0.07 0.13,0.04 0.26,0.08 0.39,0.16 0.13,0.08 0.37,0.2 0.43,0.34 -0.1,0.03 -0.23,0 -0.34,-0.01 -0.19,-0.01 -0.38,-0.02 -0.56,-0.09 -0.18,-0.06 -0.36,-0.15 -0.54,-0.22 -0.14,-0.04 -0.23,-0.15 -0.37,-0.19 -0.15,-0.04 -0.32,-0.04 -0.48,-0.09 -0.33,-0.09 -0.57,-0.29 -0.87,-0.42 -0.68,-0.31 -1.61,-0.14 -2.37,-0.08 -0.15,0.13 -0.33,0.22 -0.48,0.35 -0.21,0.17 -0.38,0.36 -0.53,0.57 -0.13,0.18 -0.32,0.3 -0.44,0.48 -0.09,0.12 -0.17,0.21 -0.27,0.32 -0.19,0.21 -0.32,0.47 -0.48,0.69 -0.17,0.21 -0.36,0.4 -0.52,0.62 -0.11,0.14 -0.1,0.23 -0.13,0.4 -0.03,0.17 -0.05,0.33 -0.04,0.5 0.03,0.09 0.04,0.17 0.02,0.27 -0.27,0 -0.69,-0.21 -0.95,-0.03 -0.11,0.08 -0.21,0.22 -0.31,0.32 -0.13,0.13 -0.23,0.27 -0.34,0.42 -0.11,0.15 -0.22,0.34 -0.35,0.48 -0.16,0.18 -0.35,0.32 -0.55,0.46 -0.17,0.11 -0.36,0.2 -0.51,0.32 -0.13,0.12 -0.24,0.29 -0.34,0.43 -0.07,0.1 -0.13,0.19 -0.23,0.28 -0.11,0.1 -0.25,0.16 -0.38,0.25 -0.39,0.29 -0.85,0.46 -1.28,0.71 -0.12,0.08 -0.24,0.14 -0.33,0.25 -0.1,0.12 -0.15,0.22 -0.26,0.32 -0.25,0.24 -0.52,0.48 -0.74,0.74 -0.08,0.09 -0.12,0.17 -0.18,0.27 -0.15,0.25 -0.41,0.47 -0.63,0.68 -0.5,0.51 -1.01,1.12 -1.59,1.53 -0.51,0.35 -0.92,0.79 -1.37,1.21 -0.43,0.4 -0.94,0.71 -1.35,1.14 -0.29,0.3 -0.57,0.62 -0.81,0.96 -0.12,0.16 -0.23,0.3 -0.37,0.45 -0.11,0.1 -0.28,0.21 -0.35,0.34 -0.05,0.07 0.03,0.32 -0.03,0.39 -0.22,0.25 -0.43,0.51 -0.64,0.77 -0.08,0.1 -0.22,0.2 -0.26,0.31 -0.03,0.1 -0.02,0.18 0.01,0.26 0.04,0.13 0.24,0.32 0.17,0.46 -0.12,0.01 -0.18,-0.02 -0.27,-0.08 -0.07,-0.06 -0.16,-0.1 -0.24,-0.17 -0.07,-0.06 -0.12,-0.15 -0.21,-0.18 -0.12,0.12 -0.26,0.2 -0.4,0.29 -0.17,0.12 -0.33,0.25 -0.5,0.36 -0.18,0.12 -0.41,0.18 -0.52,0.37 -0.04,0.07 -0.07,0.14 -0.11,0.21 -0.14,0.19 -0.36,0.36 -0.54,0.5 -0.23,0.2 -0.47,0.37 -0.69,0.58 -0.15,0.15 -0.26,0.33 -0.38,0.49 -0.33,0.44 -0.62,0.87 -1.07,1.19 -0.27,0.19 -0.54,0.42 -0.74,0.68 -0.1,0.14 -0.19,0.28 -0.3,0.42 -0.15,0.18 -0.32,0.35 -0.46,0.53 -0.11,0.14 -0.27,0.22 -0.37,0.35 -0.03,0.04 -0.04,0.08 -0.06,0.13 -0.08,0.21 -0.17,0.42 -0.29,0.62 -0.15,0.24 -0.28,0.35 -0.49,0.5 -0.2,0.15 -0.33,0.37 -0.5,0.56 -0.12,0.13 -0.07,0.25 -0.01,0.39 0.23,0.52 0.7,0.85 1.11,1.21 0.33,0.29 0.65,0.61 0.99,0.91 0.11,0.1 0.24,0.27 0.37,0.36 0.07,0.02 0.13,0.04 0.19,0.06 0.11,0.06 0.21,0.14 0.29,0.24 0.1,0.1 0.2,0.2 0.3,0.3 0.16,0.17 0.29,0.4 0.41,0.6 0.03,0.06 0.2,0.32 0.16,0.37 -0.91,-0.68 -1.59,-1.62 -2.48,-2.33 -0.29,-0.22 -0.62,-0.38 -0.92,-0.59 -0.27,-0.18 -0.48,-0.44 -0.75,-0.62 -0.26,-0.18 -0.51,-0.32 -0.86,-0.15 -0.13,0.07 -0.2,0.23 -0.29,0.35 -0.11,0.13 -0.22,0.25 -0.34,0.37 -0.42,0.42 -0.89,0.76 -1.34,1.14 -0.22,0.22 -0.46,0.4 -0.72,0.56 -0.16,0.05 -0.29,0.14 -0.4,0.26 -0.15,0.17 -0.28,0.33 -0.43,0.49 -0.17,0.17 -0.31,0.37 -0.42,0.58 -0.21,0.36 -0.45,0.7 -0.72,1.01 -0.25,0.26 -0.52,0.51 -0.81,0.72 -0.09,0.05 -0.17,0.11 -0.25,0.19 -0.05,0.04 -0.08,0.1 -0.1,0.16 -0.17,0.26 -0.36,0.49 -0.57,0.7 -0.09,0.09 -0.64,0.85 -0.81,0.76 0.91,0.91 1.85,2.06 2.97,2.71 0.31,0.18 0.45,0.16 0.88,0.21 0.2,0.1 0.39,0.1 0.6,0.02 0.07,-0.11 0.16,-0.12 0.26,-0.04 0.36,0.08 0.32,0.31 0.47,0.57 0.2,0.32 0.66,0.67 0.93,0.92 0.2,0.22 0.43,0.37 0.71,0.47 0.17,0.09 0.33,0.09 0.5,-0.01 0.54,0.06 1.12,0.31 1.56,0.6 -0.21,0.23 -0.58,0.43 -0.71,0.71 -0.18,0.38 -0.08,0.41 0.22,0.74 0.71,0.77 1.5,1.46 2.23,2.22 1.02,1.07 1.87,2.32 2.89,3.41 0.35,0.37 0.75,0.69 1.08,1.08 0.4,0.48 0.7,1.04 1.09,1.53 1.16,1.49 2.7,2.56 3.68,4.23 0.58,1.01 1.6,1.39 2.57,1.99 1.5,0.93 2.93,2.24 3.89,3.72 0.41,0.61 0.77,1.37 1.35,1.83 1.47,1.16 3.23,1.96 4.55,3.31 1.78,1.84 2.83,4.28 4.36,6.32 1.16,1.55 2.94,2.58 4.42,3.81 1.31,1.08 2.46,2.34 3.65,3.55 0.52,0.54 1.12,0.93 1.76,1.32 0.57,0.36 0.7,0.15 1.19,0.64l2.66 2.66c1.38,1.38 2.84,2.7 4.04,4.24 0.72,0.92 1.66,1.63 2.45,2.49 0.33,0.36 0.33,0.83 0.69,1.22 0.39,0.42 0.87,0.65 1.29,1.01 0.4,0.36 0.72,0.71 1.21,0.97 0.33,0.17 0.62,0.34 0.88,0.61 0.49,0.51 0.99,1 1.48,1.5 0.41,0.41 0.65,0.87 0.89,1.4 0.36,0.81 1.13,1.28 1.69,1.94 0.39,0.47 0.63,1.05 1.02,1.51 0.41,0.48 0.93,0.84 1.34,1.31 0.22,0.25 0.13,0.6 0.32,0.83 0.21,0.26 1.42,0.45 1.51,0.47 0.42,0.09 0.87,0.7 1.31,0.7 -0.09,0.36 -0.14,0.89 -0.02,1.16 0.14,0.34 0.75,0.72 1,0.97 0.25,0.26 0.49,0.54 0.75,0.78 0.43,0.38 1.29,0.57 1.55,1.09 0.19,0.36 0.25,0.76 0.46,1.16 0.34,0.61 0.85,1.29 1.45,1.65 0.21,-0.2 0.2,-0.68 0.33,-0.95 0.13,-0.27 0.34,-0.54 0.54,-0.78 0.79,-0.97 1.87,-1.64 2.73,-2.54 0.48,-0.5 0.98,-0.83 1.59,-1.16 0.5,-0.27 0.64,-0.4 0.97,-0.87 0.72,-1.01 1.46,-1.77 2.34,-2.63 0.66,-0.65 1.17,-1.28 1.63,-2.07 0.33,-0.58 0.66,-1.13 1.15,-1.61 1.21,-1.19 2.63,-2.13 3.82,-3.36 0.43,-0.44 0.85,-0.76 1.34,-1.1 0.92,-0.63 1.88,-1.27 2.68,-2.07 0.6,-0.59 1.63,-0.53 1.8,-1.35 -0.15,-0.2 -0.14,-0.49 -0.26,-0.71 -0.12,-0.22 -0.33,-0.38 -0.51,-0.56 -0.34,-0.33 -0.76,-0.25 -1.2,-0.44 -0.43,0.67 -1.35,1.38 -2.14,1.43 -0.58,0.03 -0.56,-0.18 -0.67,-0.61 -0.19,-0.75 -0.41,-1.56 -0.79,-2.21 -0.21,-0.37 -0.41,-0.68 -0.72,-0.97 -0.22,-0.22 -0.48,-0.66 -0.78,-0.77 -0.27,0.05 -0.54,0.07 -0.81,0.06 -0.27,-0.07 -0.53,-0.17 -0.77,-0.3 -0.81,-0.29 -1.46,-0.48 -2.05,-1.14 0.57,0.31 1.17,0.52 1.8,0.68 0.79,0.19 1.51,0.52 2.23,0.85 0.61,0.28 1.47,0.47 1.97,0.92 0.7,0.62 1.11,1.51 1.27,2.46 0.56,-0.57 1.11,-1.15 1.73,-1.66 0.47,-0.4 0.49,-0.4 0.94,-0.24 0.53,0.19 1.08,0.4 1.61,0.59 0.12,0.05 0.53,0.26 0.63,0.25 0.35,-0.06 0.42,-0.69 0.49,-0.96 0.14,-0.49 0.26,-0.87 0.64,-1.25 0.51,-0.51 1.15,-0.87 1.64,-1.42 0.57,-0.64 1.2,-1.33 1.7,-2.03 0.5,-0.71 1.08,-1.75 1.92,-1.98 0.69,-0.19 1.4,0.04 2.09,-0.12 0.39,-0.09 0.4,-0.28 0.54,-0.62 0.27,-0.62 0.68,-1.26 1.04,-1.84 0.3,-0.48 0.83,-0.79 1.17,-1.25 0.19,-0.27 0.34,-0.56 0.55,-0.83 0.2,-0.27 0.52,-0.56 0.64,-0.88 0.09,-0.25 0.03,-0.51 0.1,-0.76 0.29,-1.01 1.73,-1.95 2.56,-2.54 0.61,-0.44 1.27,-0.85 1.85,-1.33 0.14,-0.11 0.24,-0.17 0.34,-0.31 0.3,-0.45 0.36,-0.32 0.39,-0.83 0.49,-0.62 0.34,-1.39 0.4,-2.07 0.05,-0.66 0.38,-1.08 0.86,-1.57 0.46,-0.49 1,-1.18 1.57,-1.53 0.41,-0.25 0.64,-0.1 1.03,-0.1 0.42,0.01 1.2,-0.64 1.59,-0.87 0.54,-0.32 1.08,-0.64 1.59,-1.01 0.32,-0.23 0.62,-0.44 0.83,-0.76 0.01,-0.02 0.02,-0.17 0.05,-0.22 1.05,-1.96 3.76,-1.75 5.38,-2.99 -0.04,-0.04 -0.08,-0.09 -0.11,-0.13 0.8,-1.39 2.3,-2.22 3.4,-3.37 0.23,-0.24 0.35,-0.5 0.53,-0.74 0.07,-0.09 0.24,-0.2 0.28,-0.32 0.18,-0.55 -0.93,-0.95 -1.12,-1.39 0.53,0.14 0.76,0.92 1.25,1.02 0.15,0.02 0.47,-0.19 0.56,-0.24 0.63,-0.38 1.13,-1 1.68,-1.48 0.38,-0.32 0.74,-0.54 1.15,-0.76 0.06,0.07 0.11,0.08 0.18,0.02 0.13,-0.08 0.25,-0.17 0.36,-0.29 0.79,-0.63 1.32,-1.39 2.03,-2.09 0.95,-0.92 1.83,-2 2.87,-2.81 0.57,-0.44 0.78,-0.71 1.09,-1.35 0.4,-0.79 0.82,-1.65 1.55,-2.22 0.41,-0.32 0.88,-0.39 1.29,-0.66 0.41,-0.27 0.74,-0.71 1.09,-1.05 1.01,-1 1.92,-2.57 2.92,-3.58 -0.67,-0.67 -1.3,-1.54 -2.11,-2.04z"/>
  <path class="fil0" d="M71.17 46.97c2.1,0 4.19,0 6.29,0.01 1.16,0 1.98,-1.16 1.56,-2.25 -0.07,-0.18 -0.12,-0.36 -0.16,-0.54 -0.11,-0.49 -0.6,-0.97 -1.1,-0.95 -1.26,0.03 -2.53,0.06 -3.79,0.17 -1.01,0.09 -2.02,0.28 -3.02,0.47 -0.18,0.03 -0.45,0.27 -0.46,0.42 -0.04,0.87 -0.02,1.74 -0.02,2.67l0.7 0z"/>
  <path class="fil0" d="M73.74 83.55c0.15,0.24 0.27,0.33 0.55,0.33 1.56,-0.02 3.12,-0.01 4.68,-0.01 0.93,0 1.83,-0.89 1.83,-1.83 0,-4.62 0.02,-9.24 -0.01,-13.85 -0.01,-0.71 -0.13,-1.44 -0.35,-2.11 -0.23,-0.7 -0.65,-1.29 -1.52,-1.41 -1.06,-0.15 -2.11,-0.41 -3.16,-0.58 -1.09,-0.17 -2.11,0.42 -2.38,1.56 -0.18,0.77 -0.28,1.59 -0.29,2.38 -0.04,2.18 -0.01,4.36 -0.01,6.54l0.02 0c0,1 0,2 0,2.99 -0.01,1.02 0.02,2.03 -0.02,3.04 -0.05,1.05 0.1,2.03 0.66,2.95z"/>
  <g>
   <path class="fil0" d="M107.44 67.54c-0.19,0.81 -0.37,1.62 -0.55,2.42 -0.06,0 -0.11,0 -0.17,0 0,-0.6 0,-1.2 0,-1.79 -0.01,-2.55 -0.07,-5.1 0.01,-7.65 0.03,-0.95 0.4,-1.89 0.64,-2.82 0.11,-0.43 0.28,-0.83 0.43,-1.24 0.06,0 0.12,0.01 0.18,0.01 0,0.74 0,1.48 0,2.23 0,1.66 -0.05,3.32 0,4.99 0.05,1.32 -0.24,2.58 -0.54,3.85zm-3.51 -24.59c-1.78,0 -3.57,0 -5.35,-0.01 -0.11,0 -0.21,-0.01 -0.31,-0.01 -1.03,-0.01 -1.13,0.1 -1.13,1.13 0,0.77 -0.04,1.54 -0.05,2.31 0,0.49 0,0.98 0.03,1.46 0.03,0.36 0.31,0.39 0.61,0.39 1.29,0 2.58,0 3.86,0 0.72,0.01 0.73,0.01 0.77,0.74 0.01,0.27 0.01,0.55 -0.04,0.82 -0.02,0.13 -0.11,0.32 -0.22,0.36 -0.84,0.3 -1.63,0.79 -2.61,0.6 -0.63,-0.13 -1.3,-0.07 -1.95,-0.05 -0.12,0.01 -0.33,0.23 -0.33,0.35 -0.01,1.56 -0.01,3.12 0.04,4.68 0.02,0.58 0.25,0.76 0.82,0.72 1.23,-0.07 2.46,-0.18 3.69,-0.27 0.06,-0.01 0.13,0 0.25,0 0,0.83 0.01,1.64 -0.02,2.45 0,0.09 -0.25,0.22 -0.4,0.23 -1.24,0.11 -2.5,0.16 -3.74,0.29 -0.65,0.07 -1.21,0.05 -1.73,-0.42 -0.17,-0.16 -0.56,-0.11 -0.84,-0.11 -0.83,-0.01 -1.24,-0.42 -1.3,-1.24 -0.1,-1.57 -0.28,-3.14 -0.37,-4.71 -0.09,-1.59 -0.11,-3.19 -0.15,-4.78 0,-0.15 0.08,-0.29 0.11,-0.44 0.12,-0.54 0.33,-1.08 0.35,-1.62 0.05,-1.26 -0.01,-2.53 0.01,-3.8 0,-0.22 0.18,-0.43 0.29,-0.64 0.12,-0.22 0.36,-0.42 0.36,-0.64 0,-0.52 0.27,-0.57 0.69,-0.57 2.61,0.01 5.22,0 7.83,0 0.31,0 0.63,0 0.94,0.01 0.35,0.02 0.46,0.22 0.45,0.55 -0.02,0.55 -0.04,1.1 0,1.65 0.04,0.45 -0.16,0.58 -0.56,0.57zm-0.46 37.25c-0.05,0.07 -0.23,0.09 -0.33,0.06 -0.68,-0.17 -1.41,-0.25 -1.99,-0.58 -0.5,-0.28 -1.08,-0.68 -0.99,-1.48 0.09,-0.73 0.07,-1.47 0.11,-2.2 0.04,-0.45 -0.09,-0.75 -0.48,-1.03 -1.92,-1.42 -3.82,-2.87 -5.72,-4.31 -0.33,-0.25 -0.63,-0.58 -1,-0.73 -0.3,-0.12 -0.7,-0.08 -1.04,-0.01 -0.29,0.06 -0.32,0.36 -0.32,0.65 0.01,2.42 0.01,4.84 0.01,7.26 0.01,0.86 0,0.86 -0.84,0.89 -0.82,0.02 -1.64,0.08 -2.46,0.13 -0.36,0.03 -0.58,-0.07 -0.77,-0.43 -0.37,-0.71 -0.6,-1.4 -0.55,-2.23 0.17,-2.86 0.27,-5.73 0.4,-8.59 0.08,-1.79 0.19,-3.57 0.28,-5.35 0.02,-0.3 0,-0.61 -0.01,-0.92 -0.01,-0.35 0.13,-0.55 0.51,-0.54 1.15,0.03 2.3,0.06 3.45,0.07 0.36,0.01 0.42,0.21 0.42,0.51 -0.01,0.94 -0.01,1.88 -0.02,2.83 -0.01,0.53 0.19,0.92 0.66,1.23 1.82,1.19 3.61,2.43 5.41,3.64 0.63,0.43 1.28,0.85 1.92,1.26 0.41,0.27 0.56,0.18 0.58,-0.32 0.01,-0.53 0,-1.06 0,-1.59 0,-2.31 -0.01,-4.61 -0.01,-6.91 0,-0.19 0.03,-0.37 0.05,-0.69 0.77,0.18 1.45,0.34 2.14,0.51 0.29,0.08 0.58,0.24 0.87,0.25 0.64,0.02 0.68,0.38 0.68,0.88 -0.01,5.24 -0.01,10.48 0.02,15.72 0,0.87 -0.57,1.39 -0.98,2.02zm0.92 26.73c0,1.07 -1.25,2.29 -2.3,2.29 -1.14,0 -2.27,-0.03 -3.4,0.02 -0.6,0.03 -1.18,0.23 -1.78,0.34 -0.36,0.07 -0.72,0.16 -1.04,-0.17 -0.21,-0.21 -0.51,-0.33 -0.74,-0.52 -0.74,-0.6 -0.91,-1.42 -0.9,-2.34 0.03,-1.8 0.01,-3.6 0,-5.4 0,-0.3 0.07,-0.47 0.37,-0.64 0.83,-0.47 1.69,-0.37 2.55,-0.25 0.47,0.07 0.85,0.76 0.85,1.39 0.01,1.31 0,2.61 0.01,3.92 0,0.78 0.17,0.98 0.95,0.97 0.49,-0.01 1,-0.07 1.48,-0.19 0.46,-0.11 0.68,-0.52 0.7,-0.96 0.06,-1.32 0.04,-2.64 0.1,-3.96 0.08,-1.68 -0.89,-2.72 -2.13,-3.6 -0.22,-0.16 -0.58,-0.18 -0.88,-0.19 -1.18,-0.02 -2.37,-0.02 -3.55,0 -0.51,0.01 -0.76,-0.25 -0.87,-0.69 -0.05,-0.19 -0.05,-0.41 -0.05,-0.61 0,-1.98 0,-3.95 0,-5.93l0 0c0,-2.02 -0.07,-4.05 0.02,-6.07 0.05,-1.1 0.69,-2.01 1.6,-2.67 0.11,-0.08 0.3,-0.05 0.45,-0.05 1.73,-0.01 3.47,0.06 5.2,-0.03 1.08,-0.06 1.67,0.57 2.12,1.31 0.71,1.21 0.94,2.58 0.96,3.97 0.03,1.57 0.03,3.15 0.05,4.73 0.01,0.67 -0.22,0.96 -0.9,0.92 -0.63,-0.04 -1.26,-0.13 -1.88,-0.23 -0.4,-0.06 -0.79,-0.63 -0.79,-1.08 0,-1.39 -0.04,-2.78 0.02,-4.17 0.05,-1.15 -0.91,-1.87 -2.16,-1.4 -0.82,0.3 -1.21,0.84 -1.22,1.67 -0.01,1.79 -0.01,3.57 0.02,5.35 0,0.58 0.3,0.79 0.9,0.79 0.98,-0.02 1.95,-0.01 2.93,-0.03 0.91,-0.02 1.67,0.38 2.35,0.89 0.31,0.23 0.51,0.69 0.62,1.08 0.18,0.66 0.32,1.34 0.33,2.01 0.04,3.18 0.02,6.36 0.01,9.53zm-11.93 -16.47c-0.71,1.08 -1.38,2.18 -2.06,3.27 -0.51,0.82 -1.02,1.64 -1.51,2.47 -0.33,0.56 -0.46,1.15 -0.45,1.84 0.04,2.69 -0.01,5.39 -0.02,8.08 0,0.35 -0.02,0.69 0,1.03 0.03,0.57 -0.15,1.01 -0.46,1.51 -0.34,0.53 -0.59,0.78 -1.25,0.81 -0.54,0.02 -0.94,-0.14 -1.34,-0.39 -0.66,-0.42 -1.01,-0.94 -0.94,-1.84 0.12,-1.43 0.03,-2.88 0.03,-4.32l0.03 0c0,-1.65 -0.02,-3.3 0.01,-4.95 0.01,-0.64 -0.39,-1.04 -0.73,-1.46 -0.99,-1.21 -2.03,-2.38 -3.06,-3.56 -0.56,-0.64 -1.12,-1.27 -1.69,-1.89 -0.26,-0.29 -0.26,-0.68 0.04,-0.93 0.51,-0.43 1.01,-0.86 1.53,-1.27 0.45,-0.36 0.99,-0.31 1.36,0.15 0.99,1.22 1.96,2.46 2.93,3.69 0.2,0.25 0.37,0.53 0.6,0.76 0.2,0.2 0.47,0.31 0.71,0.01 0.58,-0.74 1.13,-1.51 1.75,-2.23 0.97,-1.12 1.95,-2.23 2.97,-3.3 0.4,-0.41 0.86,-0.35 1.26,0.02 1,0.93 1.03,1.35 0.29,2.5zm-14.92 3.83c-1.86,-0.01 -3.73,-0.01 -5.6,-0.05 -0.56,-0.01 -0.78,0.1 -0.79,0.67 -0.02,1.2 -0.01,2.4 0,3.6 0,0.42 0.18,0.65 0.66,0.63 1.22,-0.02 2.44,0.01 3.66,-0.01 0.45,-0.01 0.62,0.16 0.58,0.6 -0.02,0.19 -0.01,0.38 -0.01,0.57 0.02,0.4 -0.11,0.67 -0.57,0.68 -0.03,0 -0.07,-0.01 -0.1,0.01 -1.01,0.84 -2.19,0.35 -3.3,0.39 -0.82,0.03 -0.87,0.06 -0.85,0.9 0.03,1.06 -0.02,2.13 0,3.19 0.02,1.12 0.4,1.39 1.51,1.24 0.98,-0.14 1.97,-0.2 3.01,-0.3 0,0.73 0.01,1.48 -0.01,2.23 -0.01,0.1 -0.18,0.25 -0.29,0.27 -0.89,0.11 -1.8,0.2 -2.69,0.3 -0.43,0.04 -0.85,0.11 -1.27,0.12 -0.25,0.01 -0.61,0.01 -0.73,-0.14 -0.38,-0.49 -0.91,-0.38 -1.39,-0.42 -0.59,-0.06 -1.04,-0.45 -1.08,-1.03 -0.18,-2.87 -0.34,-5.75 -0.5,-8.62 -0.02,-0.21 -0.02,-0.44 0.07,-0.61 0.41,-0.75 0.35,-1.55 0.33,-2.36 -0.03,-0.91 0,-1.82 0,-2.73 0,-0.33 0.06,-0.58 0.39,-0.76 0.14,-0.06 0.26,-0.31 0.27,-0.47 0.01,-0.38 0.14,-0.5 0.53,-0.49 2.43,0.01 4.87,0.01 7.31,0 0.24,0 0.47,-0.05 0.71,-0.05 0.32,0 0.65,-0.01 0.62,0.48 -0.02,0.55 -0.02,1.1 0,1.64 0.02,0.37 -0.15,0.52 -0.47,0.52zm-10.76 -39.14c-0.08,-3.16 -0.13,-6.31 -0.2,-9.46 -0.02,-1.23 -0.06,-2.47 -0.12,-3.7 -0.01,-0.34 0.09,-0.48 0.43,-0.61 1.7,-0.6 3.46,-0.53 5.21,-0.57 2.58,-0.08 5.15,-0.12 7.72,-0.25 1.31,-0.07 2.14,0.52 2.62,1.63 0.65,1.45 0.95,2.97 0.32,4.51 -0.19,0.45 -0.59,0.85 -0.96,1.19 -0.33,0.3 -0.55,0.52 -0.54,1.04 0.03,1.9 -0.01,3.8 -0.06,5.71 -0.01,0.68 -0.36,0.97 -1.02,0.97 -0.4,0 -0.8,-0.02 -1.19,0.02 -0.44,0.04 -0.66,-0.21 -0.93,-0.5 -0.78,-0.82 -0.5,-1.87 -0.65,-2.82 -0.12,-0.72 -0.11,-1.47 -0.23,-2.19 -0.03,-0.21 -0.3,-0.49 -0.5,-0.53 -0.79,-0.16 -1.6,-0.28 -2.38,0.16 -0.18,0.1 -0.43,0.09 -0.65,0.09 -0.71,0.01 -1.41,0.01 -2.11,0.01 -0.35,0 -0.58,0.13 -0.57,0.5 0.04,1.13 0.1,2.26 0.13,3.39 0.02,0.63 0,1.27 -0.01,1.9 -0.01,0.51 -0.25,0.66 -0.69,0.41 -0.34,-0.19 -0.56,-0.3 -0.94,0.02 -0.47,0.39 -2.03,0.12 -2.44,-0.34 -0.14,-0.15 -0.24,-0.39 -0.24,-0.58zm-1.14 54.06c-0.57,0.08 -1.17,0.03 -1.76,0.03 -1.03,-0.01 -1,-0.03 -1.44,-1.04 -0.52,-1.2 -1.14,-2.36 -1.68,-3.55 -0.66,-1.46 -1.28,-2.94 -1.93,-4.41 -0.26,-0.59 -0.55,-1.17 -0.83,-1.75 -0.26,-0.55 -0.41,-0.6 -0.92,-0.23 -1.01,0.73 -2,1.48 -3,2.21 -1.2,0.89 -2.4,1.77 -3.6,2.65 -0.19,0.14 -0.39,0.27 -0.54,0.44 -0.14,0.16 -0.32,0.37 -0.32,0.56 -0.01,0.93 0.06,1.85 0.06,2.78 0,0.41 0.13,0.87 -0.44,1.13 -0.16,0.08 -0.11,0.54 -0.22,0.81 -0.06,0.17 -0.22,0.37 -0.37,0.42 -0.73,0.21 -1.27,-0.03 -1.71,-0.65 -0.08,-0.11 -0.27,-0.19 -0.41,-0.21 -0.38,-0.03 -0.76,-0.01 -1.13,-0.01 -0.66,0 -0.7,-0.04 -0.7,-0.69 -0.01,-4.66 -0.01,-9.31 -0.01,-13.97 0,-0.94 0.01,-1.88 0.02,-2.82 0,-0.09 0,-0.19 0.01,-0.25 0.05,-0.51 0.91,-0.91 1.56,-1.01 0.41,-0.06 0.83,0.03 1.24,-0.01 1.24,-0.14 1.74,0.62 1.73,1.76 -0.01,1.8 -0.01,3.6 0.01,5.4 0,0.22 0.12,0.54 0.28,0.63 0.17,0.09 0.5,0.03 0.69,-0.09 1.24,-0.81 2.45,-1.66 3.68,-2.47 1.47,-0.98 2.95,-1.94 4.43,-2.91 1.1,-0.73 2.18,-1.49 3.32,-2.16 0.44,-0.27 1.01,-0.36 1.53,-0.47 0.52,-0.11 0.92,0.19 1.22,0.59 0.59,0.78 1.16,1.58 1.78,2.44 -0.66,0.62 -1.27,1.21 -1.91,1.79 -0.58,0.54 -1.18,1.06 -1.78,1.58 -0.36,0.32 -0.46,0.71 -0.26,1.16 0.55,1.23 1.11,2.45 1.65,3.69 0.7,1.59 1.38,3.19 2.08,4.78 0.22,0.51 0.46,1.02 0.69,1.53 0.04,0.1 0.08,0.19 0.12,0.29 0.46,1.18 0.1,1.85 -1.14,2.03zm-21.39 -26.38c0.01,-5.25 0.02,-10.51 0.03,-15.76 0,-0.5 -0.03,-1 0.04,-1.49 0.08,-0.63 1.28,-1.61 1.92,-1.62 0.6,-0.01 1.2,0.03 1.8,-0.03 0.65,-0.06 1.05,0.2 1.44,0.71 1.39,1.78 2.83,3.51 4.26,5.25 0.27,0.32 0.56,0.54 1.09,0.24 0.76,-0.44 1.64,-0.66 2.45,-1.04 0.97,-0.45 1.94,-0.93 2.87,-1.45 0.82,-0.46 1.75,-0.86 2.35,-1.53 0.73,-0.81 1.51,-0.59 2.27,-0.43 0.29,0.06 0.58,0.65 0.65,1.04 0.13,0.68 0.12,1.4 0.12,2.1 0,4.7 -0.01,9.41 -0.02,14.11 0,0.58 -0.11,0.68 -0.7,0.66 -0.31,-0.01 -0.63,-0.07 -0.93,-0.01 -0.36,0.06 -0.7,0.22 -1.04,0.34 -0.3,0.1 -0.67,0.37 -0.89,0.28 -0.4,-0.17 -0.65,-0.55 -0.64,-1.07 0.05,-2.98 0.07,-5.97 0.1,-8.96 0.01,-0.65 0.01,-1.3 0.01,-1.95 0,-0.17 -0.04,-0.33 -0.06,-0.52 -0.93,0.22 -1.69,0.67 -2.45,1.13 -0.6,0.36 -1.26,0.6 -1.89,0.92 -0.44,0.22 -0.86,0.47 -1.3,0.7 -0.6,0.31 -1.19,0.67 -1.83,0.88 -0.21,0.07 -0.61,-0.24 -0.82,-0.47 -0.9,-0.97 -1.75,-1.98 -2.65,-2.96 -0.15,-0.17 -0.44,-0.21 -0.68,-0.32 0,0.99 -0.02,1.87 0,2.76 0.05,2.54 0.11,5.08 0.16,7.62 0.01,0.17 -0.02,0.34 -0.03,0.51 -0.04,0.84 -0.54,1.3 -1.38,1.37 -0.35,0.04 -0.72,0.17 -1.03,0.34 -0.7,0.4 -1.17,0.35 -1.78,-0.2 -0.18,-0.16 -0.44,-0.28 -0.67,-0.31 -0.62,-0.08 -0.77,-0.23 -0.77,-0.84zm1.57 -29.88c-0.1,1.71 -0.38,3.42 -0.59,5.13 -0.04,0 -0.09,-0.01 -0.13,-0.02 -0.13,-3.47 -0.18,-6.94 0.74,-10.36 0,1.75 0.08,3.51 -0.02,5.25zm-3.87 -10.27c-0.01,-0.17 0.02,-0.35 -0.02,-0.52 -0.23,-1.08 0.47,-1.66 1.2,-2.2 0.17,-0.12 0.46,-0.12 0.69,-0.13 1.7,-0.03 3.4,-0.05 5.09,-0.08 3.05,-0.06 6.1,-0.13 9.15,-0.21 0.51,-0.02 0.72,0.11 0.67,0.65 -0.05,0.44 -0.01,0.89 -0.01,1.34 0,0.82 -0.46,1.28 -1.3,1.31 -1.4,0.05 -2.8,0.11 -4.21,0.18 -0.74,0.04 -0.84,0.16 -0.84,0.91 -0.02,4.2 -0.05,8.41 -0.02,12.61 0,0.85 -0.07,1.6 -0.76,2.15 -0.15,0.13 -0.37,0.22 -0.57,0.25 -0.32,0.03 -0.65,-0.01 -0.97,0 -0.52,0 -0.87,-0.09 -1.32,-0.53 -0.64,-0.61 -0.65,-1.23 -0.65,-1.94 0,-1.91 0,-3.82 0,-5.72l-0.03 0c0,-2.2 0,-4.4 0,-6.59 -0.01,-0.7 -0.09,-0.77 -0.78,-0.73 -1.43,0.08 -2.87,0.16 -4.3,0.23 -0.53,0.02 -0.99,-0.44 -1.02,-0.98zm19.08 8.63c0.43,0 0.59,-0.18 0.61,-0.57 0.09,-1.89 0.2,-3.77 0.28,-5.66 0.04,-1.08 0.72,-1.61 1.74,-1.26 0.46,0.16 0.9,0.41 1.32,0.66 0.11,0.08 0.17,0.32 0.17,0.49 0.07,2.45 0.12,4.91 0.19,7.36 0.03,1.34 0.13,2.68 0.13,4.02 0,1.2 -0.08,2.41 -0.15,3.62 -0.02,0.43 -0.33,0.6 -0.74,0.59 -0.11,0 -0.21,0 -0.31,0 -1.61,0 -2.35,-0.74 -2.37,-2.35 -0.01,-1.08 -0.06,-2.16 -0.08,-3.24 -0.01,-0.4 -0.18,-0.59 -0.59,-0.59 -1.05,0.01 -2.1,0 -3.14,0.01 -0.23,0 -0.46,0.09 -0.81,0.17 0,1.29 -0.06,2.58 0.02,3.86 0.05,0.8 -0.46,1.3 -0.75,1.91 -0.04,0.08 -0.31,0.12 -0.44,0.08 -0.65,-0.2 -1.31,-0.38 -1.89,-0.71 -0.23,-0.13 -0.32,-0.64 -0.34,-0.98 -0.03,-0.66 0.05,-1.33 0.05,-2 0.01,-3.95 0.02,-7.9 0,-11.86 0,-0.51 0.12,-0.71 0.68,-0.72 0.7,-0.01 1.41,-0.17 2.11,-0.26 0.27,-0.04 0.74,0.43 0.78,0.82 0.03,0.27 0,0.55 0,0.82 0,1.75 0,3.51 -0.01,5.26 0,0.36 0.12,0.53 0.51,0.53 1.01,-0.02 2.02,-0.03 3.03,0zm23.05 10.46c0.29,0.67 0.48,1.39 0.69,2.09 0.07,0.21 0.1,0.44 0.09,0.66 -0.1,2.48 -0.2,4.96 -0.33,7.45 -0.12,2.47 -0.27,4.93 -0.39,7.4 -0.06,1.3 -0.07,2.6 -0.13,3.91 -0.05,0.85 -0.11,1.71 -0.25,2.54 -0.2,1.17 -1.22,1.96 -2.4,1.96 -1.53,0 -3.06,0 -4.59,0l0 -0.01c-1.61,0 -3.23,0.04 -4.84,-0.02 -1.06,-0.04 -1.87,-0.63 -2.43,-1.52 -0.24,-0.38 -0.48,-0.78 -0.63,-1.2 -0.15,-0.43 -0.24,-0.9 -0.25,-1.35 -0.03,-1.89 -0.01,-3.77 -0.01,-5.66 -0.01,-0.42 0.02,-0.77 0.53,-0.9 0.14,-0.03 0.29,-0.29 0.31,-0.46 0.25,-2.31 0.49,-4.63 0.71,-6.95 0.2,-2.17 0.36,-4.34 0.56,-6.5 0.16,-1.65 1.21,-2.55 2.65,-3.13 1.28,-0.51 2.57,-0.47 3.91,-0.36 1.13,0.09 2.29,0.18 3.39,-0.03 1.94,-0.36 2.76,0.61 3.41,2.08zm-0.23 -15.09c0.07,-1 0.09,-2.02 0.11,-3.03 0.01,-0.39 -0.02,-0.78 -0.04,-1.18 -0.03,-0.35 0.06,-0.62 0.41,-0.8 0.14,-0.07 0.25,-0.33 0.24,-0.5 -0.01,-0.44 0.22,-0.51 0.58,-0.51 1.72,0 3.43,0 5.15,-0.01 0.88,0 1.75,-0.01 2.62,0.01 0.57,0.01 0.66,0.15 0.63,0.73 -0.02,0.35 0.04,0.71 0.04,1.06 -0.01,0.56 -0.21,0.73 -0.76,0.73 -1.92,0 -3.84,0 -5.76,0 -0.08,0.24 -0.19,0.42 -0.19,0.59 -0.02,1.22 -0.03,2.44 0,3.66 0.01,0.38 0.27,0.58 0.7,0.57 1.29,-0.01 2.57,0 3.94,0 0,0.48 0.06,0.94 -0.03,1.36 -0.04,0.18 -0.37,0.32 -0.56,0.47 -1.03,0.77 -2.21,0.23 -3.3,0.41 -0.22,0.03 -0.45,0 -0.75,0 0.08,1.68 -0.17,3.32 0.17,4.95l4.25 0c0,0.64 0.02,1.31 -0.02,1.97 -0.01,0.13 -0.24,0.35 -0.39,0.36 -1.35,0.14 -2.7,0.24 -4.06,0.34 -0.14,0.01 -0.34,-0.03 -0.41,-0.13 -0.37,-0.46 -0.86,-0.48 -1.38,-0.46 -0.48,0.02 -0.9,-0.29 -0.93,-0.74 -0.2,-2.91 -0.38,-5.81 -0.53,-8.72 -0.01,-0.37 0.25,-0.75 0.27,-1.13zm-43.48 64.65l69.43 0 0 -72.84 -69.43 0 0 72.84zm0 -72.84l0 72.84 0 -72.84z"/>
  </g>
  <polygon class="fil1" points="130.31,77.51 133.95,74.45 136.07,73.15 140.11,71.5 142.65,66.63 141.53,64.82 138.71,69.46 135.37,71.51 "/>
 </g>
</svg>
