<?xml version="1.0" encoding="UTF-8"?>
<!DOCTYPE svg PUBLIC "-//W3C//DTD SVG 1.1//EN" "http://www.w3.org/Graphics/SVG/1.1/DTD/svg11.dtd">
<!-- Creator: CorelDRAW 2019 (64-Bit) -->
<svg xmlns="http://www.w3.org/2000/svg" xml:space="preserve" width="150px" height="51px" version="1.1" style="shape-rendering:geometricPrecision; text-rendering:geometricPrecision; image-rendering:optimizeQuality; fill-rule:evenodd; clip-rule:evenodd"
viewBox="0 0 150 51.15"
 xmlns:xlink="http://www.w3.org/1999/xlink"
 xmlns:xodm="http://www.corel.com/coreldraw/odm/2003">
 <defs>
  <style type="text/css">
   <![CDATA[
    .fil1 {fill:#FFDD09}
    .fil0 {fill:#FFDD09;fill-rule:nonzero}
   ]]>
  </style>
 </defs>
 <g id="Layer_x0020_1">
  <metadata id="CorelCorpID_0Corel-Layer"/>
  <path class="fil0" d="M50.8 36.59c-2.09,-0.7 -4.19,-1.4 -6.27,-2.1 -1.15,-0.39 -3.13,-0.27 -3.8,0.23 -0.11,0.08 -0.24,0.16 -0.38,0.24 -0.38,0.19 -0.36,0.52 0.14,0.68 1.3,0.41 2.59,0.82 3.96,1.21 1.1,0.3 2.3,0.58 3.49,0.85 0.21,0.05 0.72,0.06 0.88,0.01 0.91,-0.28 1.76,-0.58 2.69,-0.89l-0.71 -0.23z"/>
  <path class="fil0" d="M84.77 23.54c0.09,-0.14 0.05,-0.21 -0.22,-0.3 -1.58,-0.51 -3.13,-1.04 -4.69,-1.56 -0.92,-0.31 -2.72,-0.31 -3.65,0 -4.62,1.54 -9.24,3.08 -13.82,4.63 -0.7,0.23 -1.31,0.52 -1.76,0.82 -0.48,0.31 -0.63,0.65 0.11,0.97 0.91,0.41 1.7,0.84 2.58,1.25 0.91,0.42 2.52,0.56 3.93,0.28 0.96,-0.2 1.86,-0.44 2.67,-0.7 2.22,-0.72 4.37,-1.45 6.55,-2.18l-0.02 -0.01c0.99,-0.33 1.98,-0.66 2.98,-1 1.01,-0.33 2,-0.68 3.05,-1 1.11,-0.34 1.93,-0.71 2.29,-1.2z"/>
  <g>
   <path class="fil0" d="M35.13 17.64c1,-0.21 1.98,-0.42 2.97,-0.63 0.05,0.02 0.11,0.04 0.16,0.06 -0.59,0.2 -1.19,0.39 -1.79,0.59 -2.53,0.86 -5.02,1.73 -7.64,2.55 -0.98,0.31 -2.29,0.5 -3.46,0.73 -0.53,0.1 -1.11,0.18 -1.66,0.27 -0.06,-0.02 -0.12,-0.04 -0.17,-0.06 0.74,-0.25 1.48,-0.5 2.22,-0.75 1.66,-0.55 3.37,-1.09 4.98,-1.66 1.28,-0.46 2.83,-0.78 4.39,-1.1zm-21.05 9.37c1.77,0.59 3.56,1.19 5.34,1.78 0.1,0.04 0.19,0.08 0.3,0.11 1.01,0.35 1.22,0.35 2.25,0 0.77,-0.25 1.57,-0.5 2.35,-0.76 0.49,-0.16 0.98,-0.32 1.43,-0.49 0.32,-0.13 0.08,-0.24 -0.22,-0.33 -1.29,-0.43 -2.57,-0.86 -3.85,-1.29 -0.71,-0.24 -0.71,-0.25 -0.03,-0.5 0.26,-0.1 0.54,-0.19 0.85,-0.27 0.15,-0.03 0.44,-0.07 0.58,-0.04 1.14,0.18 2.42,0.28 3.21,0.67 0.5,0.25 1.23,0.45 1.9,0.66 0.12,0.04 0.56,0.04 0.68,0 1.56,-0.52 3.12,-1.04 4.63,-1.57 0.56,-0.2 0.51,-0.34 -0.09,-0.52 -1.3,-0.39 -2.64,-0.76 -3.96,-1.14 -0.07,-0.02 -0.14,-0.04 -0.26,-0.08 0.84,-0.28 1.64,-0.56 2.48,-0.82 0.08,-0.02 0.47,0.02 0.62,0.06 1.35,0.38 2.65,0.78 4.02,1.15 0.72,0.2 1.26,0.39 1.31,0.72 0.01,0.11 0.45,0.22 0.73,0.32 0.83,0.28 0.82,0.55 0.06,0.85 -1.46,0.55 -2.85,1.14 -4.33,1.69 -1.5,0.56 -3.07,1.1 -4.63,1.64 -0.14,0.05 -0.36,0.08 -0.55,0.11 -0.66,0.14 -1.4,0.25 -1.96,0.43 -1.31,0.4 -2.52,0.85 -3.81,1.26 -0.22,0.07 -0.6,0.09 -0.92,0.12 -0.34,0.03 -0.79,0.02 -1,0.09 -0.52,0.18 -0.84,0.1 -1.25,-0.04 -2.6,-0.87 -5.22,-1.74 -7.83,-2.61 -0.31,-0.1 -0.62,-0.21 -0.93,-0.32 -0.33,-0.12 -0.24,-0.22 0.11,-0.33 0.56,-0.18 1.13,-0.36 1.64,-0.55 0.41,-0.16 0.73,-0.14 1.13,0zm37.65 -12.27c0.12,-0.01 0.32,0.04 0.4,0.09 0.5,0.28 1.15,0.55 1.4,0.85 0.22,0.26 0.4,0.59 -0.49,0.82 -0.81,0.22 -1.53,0.47 -2.31,0.7 -0.48,0.14 -0.65,0.28 -0.55,0.51 0.51,1.11 0.95,2.23 1.41,3.34 0.09,0.2 0.06,0.41 0.28,0.58 0.18,0.14 0.62,0.26 1.02,0.35 0.36,0.08 0.68,-0.01 0.97,-0.11 2.4,-0.81 4.83,-1.62 7.24,-2.43 0.85,-0.28 0.86,-0.28 1.72,-0.01 0.84,0.26 1.72,0.52 2.6,0.77 0.38,0.12 0.51,0.22 0.34,0.4 -0.34,0.36 -0.81,0.67 -1.69,0.93 -3.02,0.9 -5.98,1.83 -8.97,2.74 -1.87,0.56 -3.75,1.12 -5.62,1.68 -0.32,0.1 -0.61,0.21 -0.91,0.32 -0.35,0.12 -0.68,0.14 -1.05,0 -1.12,-0.39 -2.24,-0.78 -3.37,-1.17 -0.36,-0.12 -0.22,-0.21 0.08,-0.31 0.95,-0.31 1.9,-0.62 2.85,-0.93 0.54,-0.18 0.73,-0.37 0.56,-0.64 -0.61,-1 -1.17,-2.01 -1.76,-3.01 -0.2,-0.36 -0.42,-0.71 -0.66,-1.07 -0.14,-0.22 -0.38,-0.24 -0.89,-0.08 -0.55,0.17 -1.07,0.35 -1.6,0.53 -2.3,0.77 -4.59,1.54 -6.89,2.31 -0.18,0.06 -0.39,0.11 -0.74,0.21 -0.58,-0.32 -1.1,-0.6 -1.62,-0.88 -0.22,-0.13 -0.33,-0.28 -0.62,-0.38 -0.61,-0.22 -0.3,-0.35 0.2,-0.52 5.24,-1.75 10.48,-3.49 15.68,-5.25 0.87,-0.29 1.96,-0.27 2.99,-0.34zm25.78 -9.23c1.07,-0.36 3.53,-0.35 4.59,0 1.13,0.38 2.22,0.77 3.41,1.13 0.62,0.19 1.41,0.32 2.11,0.48 0.43,0.1 0.88,0.19 0.87,0.41 0,0.14 0.18,0.27 0.22,0.42 0.14,0.44 -0.51,0.77 -1.44,1.07 -1.82,0.6 -3.6,1.2 -5.39,1.81 -0.3,0.1 -0.54,0.13 -1.01,0.09 -1.29,-0.12 -2.06,-0.44 -2.79,-0.77 -0.4,-0.18 -0.09,-0.54 0.54,-0.75 1.29,-0.44 2.6,-0.87 3.9,-1.3 0.78,-0.26 0.81,-0.39 0.02,-0.65 -0.51,-0.16 -1.07,-0.3 -1.66,-0.43 -0.58,-0.11 -1.21,-0.05 -1.67,0.09 -1.37,0.42 -2.67,0.87 -4.05,1.29 -1.76,0.53 -1.83,1.2 -1.47,1.91 0.07,0.13 0.4,0.25 0.69,0.35 1.16,0.4 2.34,0.8 3.54,1.19 0.53,0.17 0.52,0.33 0.19,0.52 -0.15,0.08 -0.36,0.15 -0.56,0.22 -1.97,0.66 -3.95,1.32 -5.92,1.98l0 0c-2.02,0.67 -3.97,1.37 -6.09,2.01 -1.15,0.35 -2.69,0.45 -4.26,0.36 -0.18,-0.01 -0.34,-0.08 -0.5,-0.13 -1.73,-0.58 -3.41,-1.18 -5.22,-1.72 -1.15,-0.35 -1.11,-0.75 -0.8,-1.15 0.48,-0.64 1.62,-1.17 2.99,-1.64 1.55,-0.54 3.12,-1.06 4.67,-1.6 0.66,-0.23 1.18,-0.24 1.82,0 0.6,0.22 1.14,0.46 1.66,0.7 0.33,0.15 0.15,0.47 -0.3,0.62 -1.38,0.47 -2.73,0.95 -4.18,1.39 -1.19,0.36 -0.96,0.93 0.76,1.19 1.12,0.17 2.05,0.12 2.89,-0.16 1.79,-0.59 3.57,-1.18 5.33,-1.79 0.56,-0.19 0.48,-0.36 -0.13,-0.56 -0.98,-0.32 -1.96,-0.65 -2.95,-0.97 -0.92,-0.29 -1.28,-0.68 -1.45,-1.08 -0.08,-0.18 0.17,-0.4 0.46,-0.57 0.47,-0.27 1.01,-0.55 1.67,-0.78 3.14,-1.07 6.33,-2.12 9.51,-3.18zm-4.53 9.48c1.78,-0.13 3.55,-0.27 5.32,-0.41 1.32,-0.1 2.65,-0.2 3.97,-0.32 0.89,-0.07 1.61,-0.23 2.29,-0.46 2.65,-0.91 5.38,-1.8 8.09,-2.69 0.34,-0.11 0.71,-0.22 1.03,-0.34 0.53,-0.2 1.15,-0.29 1.96,-0.35 0.87,-0.07 1.37,-0.07 2.06,0.14 0.55,0.18 0.79,0.36 0.94,0.58 0.24,0.36 0.08,0.65 -0.89,0.93 -1.55,0.43 -2.91,0.95 -4.35,1.43l-0.03 -0.01c-1.65,0.55 -3.27,1.1 -4.95,1.64 -0.65,0.21 -0.65,0.48 -0.73,0.73 -0.22,0.74 -0.34,1.48 -0.5,2.21 -0.08,0.4 -0.14,0.8 -0.2,1.2 -0.03,0.18 -0.42,0.31 -0.97,0.3 -0.93,-0.03 -1.87,-0.05 -2.79,-0.09 -0.82,-0.03 -1.3,-0.23 -1.21,-0.51 0.23,-0.73 0.5,-1.47 0.76,-2.2 0.05,-0.16 0.16,-0.31 0.16,-0.46 -0.01,-0.13 -0.17,-0.26 -0.7,-0.24 -1.32,0.05 -2.64,0.13 -3.98,0.16 -2.08,0.06 -4.17,0.1 -6.26,0.11 -0.81,0.01 -1.21,-0.17 -1.23,-0.43 -0.07,-0.64 0.32,-0.79 2.21,-0.92zm18.71 3.69c1.86,0.63 3.72,1.25 5.55,1.89 0.55,0.19 0.89,0.23 1.45,0.04 1.22,-0.4 2.41,-0.8 3.6,-1.2 0.42,-0.14 0.47,-0.28 -0.02,-0.43 -1.25,-0.4 -2.43,-0.82 -3.67,-1.22 -0.47,-0.15 -0.46,-0.26 0.02,-0.39 0.21,-0.06 0.39,-0.13 0.57,-0.19 0.39,-0.14 0.79,-0.19 1.25,-0.04 0.03,0.01 0.07,0.03 0.11,0.03 1.86,0.06 2.55,0.62 3.69,0.97 0.84,0.27 0.92,0.27 1.75,-0.01 1.03,-0.37 2.14,-0.71 3.19,-1.07 1.09,-0.37 0.98,-0.59 -0.28,-0.91 -1.11,-0.28 -2.16,-0.59 -3.3,-0.91 0.73,-0.24 1.47,-0.49 2.24,-0.74 0.1,-0.03 0.43,-0.02 0.55,0.01 1.01,0.26 2,0.53 2.99,0.8 0.47,0.12 0.95,0.24 1.38,0.38 0.26,0.08 0.63,0.2 0.59,0.29 -0.11,0.29 0.53,0.43 0.97,0.61 0.53,0.21 0.6,0.49 0.05,0.7 -2.69,1.01 -5.4,2.03 -8.1,3.04 -0.19,0.07 -0.42,0.15 -0.68,0.18 -1.16,0.11 -1.9,0.4 -2.69,0.68 -0.87,0.31 -1.82,0.6 -2.72,0.91 -0.33,0.11 -0.64,0.17 -1.15,0.12 -0.21,-0.03 -0.57,0.02 -0.74,0.07 -0.39,0.12 -0.64,0.11 -1.02,-0.01 -2.42,-0.82 -4.86,-1.63 -7.3,-2.45 -0.24,-0.07 -0.53,-0.13 -0.76,-0.21 -0.32,-0.11 -0.66,-0.22 -0.14,-0.37 0.57,-0.18 1.12,-0.36 1.64,-0.55 0.34,-0.13 0.66,-0.12 0.98,-0.02zm-28.33 16.65c-3.08,1.08 -6.17,2.15 -9.25,3.22 -1.21,0.42 -2.4,0.84 -3.57,1.27 -0.33,0.12 -0.57,0.14 -1.04,0.06 -2.3,-0.36 -3.98,-0.98 -5.78,-1.54 -2.65,-0.84 -5.25,-1.68 -7.95,-2.49 -1.38,-0.42 -1.61,-0.89 -1,-1.42 0.81,-0.7 2.03,-1.31 4.19,-1.61 0.64,-0.09 1.43,-0.09 2.15,-0.08 0.62,0.01 1.07,0.01 1.58,-0.17 1.86,-0.64 3.81,-1.26 5.75,-1.88 0.71,-0.23 1.33,-0.21 2,0.02 0.4,0.13 0.77,0.27 1.2,0.39 0.48,0.13 0.45,0.29 0.43,0.47 -0.04,0.53 -1.36,0.79 -2.16,1.16 -0.6,0.28 -1.36,0.53 -1.96,0.81 -0.18,0.08 -0.19,0.26 -0.03,0.34 0.63,0.32 1.32,0.63 2.53,0.74 0.28,0.03 0.52,0.12 0.75,0.19 0.71,0.23 1.41,0.47 2.11,0.7 0.35,0.11 0.71,0.15 1.07,0.02 1.09,-0.39 2.15,-0.78 3.25,-1.17 0.62,-0.22 1.27,-0.43 1.91,-0.63 0.52,-0.17 0.91,-0.14 1.1,0.09 0.15,0.18 0.26,0.29 0.96,0.31 0.86,0.02 2.14,0.63 2.1,0.93 -0.01,0.09 -0.15,0.2 -0.34,0.27zm55.11 -17.65c0.66,0.16 1.21,0.38 1.79,0.57 1.03,0.35 0.97,0.35 0.4,0.83 -0.67,0.58 -1.22,1.17 -1.87,1.75 -0.79,0.7 -1.65,1.4 -2.46,2.11 -0.33,0.28 -0.63,0.57 -0.93,0.86 -0.29,0.27 -0.19,0.34 0.69,0.38 1.74,0.1 3.47,0.18 5.2,0.27 2.08,0.1 4.17,0.21 6.25,0.31 0.32,0.02 0.65,0.04 0.98,0.04 0.3,-0.01 0.68,-0.02 0.87,-0.08 0.93,-0.31 1.79,-0.64 2.71,-0.95 0.42,-0.14 0.76,-0.33 1.58,-0.23 0.23,0.03 0.65,-0.14 1.02,-0.2 0.23,-0.03 0.59,-0.05 0.79,-0.01 0.94,0.17 1.24,0.43 1.06,0.78 -0.03,0.07 0.07,0.16 0.21,0.21 0.34,0.14 0.73,0.26 1.11,0.38 0.66,0.22 0.66,0.25 0.01,0.47 -4.65,1.55 -9.29,3.1 -13.94,4.66 -0.94,0.31 -1.89,0.62 -2.84,0.93 -0.08,0.03 -0.18,0.07 -0.25,0.08 -0.56,0.16 -1.82,0 -2.57,-0.18 -0.46,-0.12 -0.8,-0.29 -1.25,-0.41 -1.38,-0.37 -1.11,-0.79 0.02,-1.16 1.81,-0.6 3.62,-1.2 5.4,-1.81 0.21,-0.08 0.42,-0.22 0.34,-0.3 -0.08,-0.09 -0.48,-0.18 -0.78,-0.2 -2.04,-0.15 -4.1,-0.27 -6.14,-0.41 -2.45,-0.16 -4.88,-0.33 -7.32,-0.5 -1.83,-0.13 -3.67,-0.23 -5.48,-0.39 -0.71,-0.06 -1.37,-0.22 -2,-0.35 -0.63,-0.14 -0.73,-0.37 -0.63,-0.61 0.2,-0.46 0.43,-0.91 0.67,-1.41 1.26,0.02 2.48,0.02 3.69,0.04 1.12,0.02 2.23,0.04 3.35,0.07 0.68,0.01 1.16,-0.08 1.41,-0.3 0.68,-0.59 1.36,-1.19 2.05,-1.78 0.89,-0.76 1.8,-1.53 2.7,-2.29 0.28,-0.24 0.56,-0.49 0.84,-0.74 0.05,-0.05 0.1,-0.09 0.16,-0.14 0.72,-0.54 1.75,-0.65 3.16,-0.29zm-4.97 15.93c-5.26,1.75 -10.52,3.5 -15.78,5.25 -0.49,0.16 -0.96,0.34 -1.51,0.48 -0.72,0.19 -2.9,0.11 -3.55,-0.1 -0.6,-0.2 -1.17,-0.41 -1.82,-0.59 -0.72,-0.2 -0.85,-0.41 -0.74,-0.72 0.4,-1.05 0.69,-2.11 0.99,-3.17 0.06,-0.2 -0.01,-0.36 -0.84,-0.44 -1.2,-0.11 -2.3,-0.33 -3.48,-0.47 -1.42,-0.18 -2.86,-0.34 -4.32,-0.48 -1.28,-0.12 -2.6,-0.29 -3.88,-0.27 -1.54,0.03 -2.09,-0.31 -2.69,-0.61 -0.23,-0.12 0.07,-0.41 0.39,-0.57 0.55,-0.27 1.28,-0.5 1.97,-0.73 4.7,-1.57 9.41,-3.14 14.12,-4.71 0.58,-0.19 0.78,-0.19 1.36,0.02 0.29,0.1 0.56,0.23 0.91,0.31 0.42,0.1 0.92,0.16 1.39,0.23 0.4,0.07 1.03,0.1 1.16,0.21 0.24,0.19 0.1,0.4 -0.43,0.57 -3.03,0.98 -6.03,1.96 -9.04,2.95 -0.66,0.22 -1.32,0.43 -1.97,0.65 -0.16,0.06 -0.29,0.12 -0.46,0.2 1.15,0.23 2.36,0.33 3.58,0.43 0.96,0.08 1.87,0.22 2.8,0.33 0.66,0.07 1.34,0.13 2,0.2 0.91,0.09 1.87,0.17 2.72,0.31 0.27,0.05 0.36,0.29 0.34,0.43 -0.07,0.63 -0.23,1.25 -0.31,1.87 -0.01,0.11 0.23,0.22 0.36,0.34 0.99,-0.33 1.88,-0.62 2.75,-0.92 2.49,-0.87 4.96,-1.73 7.45,-2.6 0.16,-0.05 0.36,-0.1 0.54,-0.16 0.88,-0.26 1.83,-0.25 2.76,0 0.38,0.11 0.88,0.19 1.36,0.24 1.1,0.1 1.52,0.27 1.57,0.66 0.02,0.11 0.16,0.23 0.36,0.32 0.54,0.24 0.55,0.34 -0.06,0.54zm-31.41 9.44c1.81,-0.54 3.8,-1.01 5.71,-1.51 0.04,0.01 0.08,0.03 0.11,0.05 -3.33,1.2 -6.75,2.37 -11.08,3.21 1.74,-0.59 3.41,-1.2 5.26,-1.75zm-6.39 4.72c-0.17,0.06 -0.37,0.11 -0.5,0.18 -0.85,0.43 -2.13,0.4 -3.4,0.33 -0.29,-0.01 -0.57,-0.11 -0.81,-0.18 -1.73,-0.56 -3.44,-1.12 -5.17,-1.68 -3.11,-0.99 -6.21,-1.99 -9.35,-2.97 -0.52,-0.17 -0.61,-0.28 -0.01,-0.45 0.48,-0.13 0.89,-0.29 1.34,-0.44 0.82,-0.27 1.73,-0.27 2.6,0 1.46,0.45 2.92,0.9 4.4,1.34 0.78,0.23 0.99,0.23 1.74,-0.02 4.22,-1.4 8.45,-2.79 12.62,-4.2 0.84,-0.29 1.66,-0.51 2.9,-0.47 0.28,0.01 0.59,0.05 0.81,0.11 0.36,0.1 0.65,0.22 0.98,0.33 0.52,0.17 0.77,0.32 0.79,0.61 0.03,0.42 -0.58,0.63 -1.3,0.87 -1.9,0.63 -3.8,1.27 -5.71,1.9l0.04 0.01c-2.2,0.74 -4.4,1.47 -6.58,2.2 -0.7,0.24 -0.67,0.29 0.04,0.5 1.51,0.46 3.03,0.91 4.53,1.36 0.56,0.17 0.55,0.48 0.04,0.67zm-10.44 -9.24c-0.42,-0.15 -0.77,-0.14 -1.17,-0.01 -1.98,0.59 -3.97,1.19 -5.93,1.79 -1.13,0.35 -2.33,0.3 -3,-0.16 -0.31,-0.21 -0.49,-0.44 -0.65,-0.66 -0.05,-0.07 0.15,-0.17 0.31,-0.22 2.38,-0.84 4.78,-1.68 7.17,-2.52 1.29,-0.46 2.53,-0.94 3.87,-1.38 1.2,-0.41 2.49,-0.78 3.76,-1.16 0.47,-0.14 0.94,-0.1 1.34,0.05 0.1,0.03 0.21,0.07 0.31,0.1 1.61,0.54 1.6,1.03 0.02,1.57 -1.07,0.37 -2.1,0.74 -3.16,1.11 -0.39,0.14 -0.41,0.26 0,0.4 1.06,0.34 2.09,0.7 3.15,1.04 0.23,0.08 0.54,0.12 0.97,0.21 1.29,-0.43 2.64,-0.84 3.84,-1.29 0.74,-0.28 1.75,-0.28 2.66,-0.39 0.12,-0.01 0.43,0.07 0.52,0.12 0.43,0.29 0.93,0.57 1.17,0.87 0.1,0.12 -0.31,0.32 -0.64,0.44 -0.63,0.23 -1.37,0.43 -2.04,0.65 -3.96,1.32 -7.91,2.63 -11.84,3.95 -0.52,0.18 -0.84,0.21 -1.41,0.02 -0.71,-0.23 -1.56,-0.41 -2.36,-0.62 -0.31,-0.08 -0.32,-0.39 0.04,-0.53 0.24,-0.1 0.55,-0.18 0.82,-0.27 1.75,-0.59 3.5,-1.17 5.26,-1.76 0.36,-0.12 0.42,-0.21 0.02,-0.34 -1.03,-0.33 -2.04,-0.67 -3.03,-1.01zm-12.56 -11.18c0.37,-0.32 0.9,-0.62 1.39,-0.93 0.14,-0.09 0.34,-0.18 0.57,-0.25 2.58,-0.79 5.16,-1.58 7.76,-2.37 2.59,-0.79 5.2,-1.56 7.78,-2.34 1.37,-0.41 2.67,-0.85 4.04,-1.26 0.9,-0.27 1.82,-0.53 2.8,-0.77 1.35,-0.32 3.16,-0.24 4.35,0.15 1.52,0.51 3.05,1.02 4.58,1.53l-0.02 0.01c1.61,0.53 3.27,1.06 4.82,1.62 1.02,0.36 1.24,0.83 0.91,1.31 -0.15,0.21 -0.3,0.43 -0.57,0.62 -0.28,0.19 -0.65,0.37 -1.1,0.53 -1.86,0.64 -3.76,1.26 -5.64,1.89 -0.41,0.14 -0.8,0.25 -1.43,0.12 -0.17,-0.03 -0.58,0 -0.76,0.05 -2.57,0.69 -5.13,1.39 -7.66,2.09 -2.37,0.65 -4.69,1.32 -7.06,1.98 -1.8,0.49 -3.75,0.44 -5.76,0.15 -1.78,-0.25 -3.04,-0.7 -4.26,-1.18 -1.04,-0.4 -2.12,-0.82 -3.42,-1.12 -2.3,-0.53 -2.15,-1.12 -1.32,-1.83zm-14.85 5.11c-1.07,0.31 -2.1,0.64 -3.13,0.97 -0.4,0.13 -0.77,0.27 -1.13,0.41 -0.34,0.13 -0.68,0.19 -1.22,0.13 -0.2,-0.02 -0.57,0.03 -0.74,0.09 -0.42,0.15 -0.73,0.09 -1.09,-0.03 -1.71,-0.57 -3.43,-1.14 -5.15,-1.71 -0.87,-0.29 -1.75,-0.58 -2.61,-0.88 -0.56,-0.19 -0.5,-0.27 0.1,-0.45 0.38,-0.11 0.67,-0.25 1.03,-0.37 0.56,-0.18 0.93,-0.17 1.48,0.01 1.92,0.64 3.83,1.28 5.76,1.92 0.32,-0.05 0.6,-0.07 0.77,-0.13 1.24,-0.4 2.47,-0.8 3.65,-1.22 0.37,-0.13 0.32,-0.29 -0.12,-0.43 -1.3,-0.42 -2.58,-0.85 -3.94,-1.31 0.49,-0.16 0.88,-0.33 1.39,-0.44 0.22,-0.05 0.68,0.01 1.03,0.03 1.79,0.08 2.43,0.66 3.71,0.96 0.25,0.06 0.44,0.15 0.75,0.25 1.59,-0.58 3.48,-1.05 4.77,-1.7l-4.25 -1.42c0.64,-0.22 1.28,-0.45 1.99,-0.65 0.14,-0.05 0.58,-0.04 0.75,0 1.48,0.41 2.94,0.83 4.39,1.25 0.15,0.04 0.31,0.12 0.29,0.18 -0.1,0.27 0.36,0.44 0.91,0.61 0.5,0.15 0.61,0.4 0.19,0.56 -2.7,1.03 -5.43,2.06 -8.18,3.08 -0.35,0.13 -0.99,0.17 -1.4,0.29zm107.98 -7.06l-69.33 -23.16 -72.74 24.3 69.33 23.15 72.74 -24.29zm-72.74 24.29l72.74 -24.29 -72.74 24.29z"/>
  </g>
  <rect class="fil1" transform="matrix(-1.01068 -0.333548 1.01068 -0.333548 72.8603 49.3447)" width="66.97" height="72.2"/>
  <path class="fil0" d="M47.72 12.47l30.6 -9.19 35.38 11.81 18.84 6.3 10.74 3.85 -24.11 7.72 -12.66 4.23 -19.72 6.59c-0.31,0.1 -7.46,3.83 -7.46,3.83l-6.24 2.08 -36.51 -12.19 -31.13 -10.91 42.27 -14.12zm-25.01 36.95c-0.03,-0.2 -0.06,-0.42 0.01,-0.62 0.02,-0.07 0.11,-0.13 0.16,-0.2 0.1,-0.14 0.05,-0.27 0.33,-0.39 0.22,-0.1 0.53,-0.11 0.78,-0.19 0.32,-0.09 0.54,-0.29 0.72,-0.41 -0.03,0.13 -0.09,0.26 -0.15,0.39 -0.03,0.07 0.08,0.28 -0.04,0.35 -0.09,0.05 -0.32,0.11 -0.45,0.15 -0.18,0.07 -0.43,0.13 -0.6,0.2 -0.51,0.22 -0.59,0.48 -0.59,0.74 0.01,0.14 0.01,0.29 0,0.44 -0.03,-0.16 -0.15,-0.3 -0.17,-0.46zm-21.52 -47.1c0.13,0.19 0.09,0.28 -0.06,0.46 -0.11,0.12 -0.61,0.35 -0.44,0.47 0.48,-0.01 0.76,-0.14 1.23,-0.14 0.52,0 0.96,0.17 1.28,0.27 1.11,0.33 3.29,0.26 4.9,0.23 -0.25,0.02 -0.48,0.04 -0.75,0.06 -0.41,0.02 -0.79,0 -1.2,0.03 -0.19,0.01 -0.36,0.04 -0.58,0.05 -0.65,0.04 -1.31,0.04 -1.96,0.07 -1.23,0.06 -3.51,0.25 -2.83,0.73 0.39,0.27 0.5,0.62 0.29,0.93 -0.06,0.08 -0.14,0.22 -0.24,0.3 -0.13,0.1 -0.47,0.15 -0.44,0.28l6.06 -0.65 5.7 0.8 3.41 0.28 6.69 0.19 -11.05 0.31 -5.38 -0.43 -4.09 0.34c0.03,0.15 -0.04,0.29 -0.11,0.47 -0.06,0.16 -0.31,0.29 -0.27,0.46 0.09,0.31 0.53,0.59 0.54,0.91 0,0.47 -0.12,0.92 -0.25,1.4 -0.15,0.53 0.14,1.07 0.74,1.57 0.94,0.8 1.63,1.74 -0.01,2.51 -0.67,0.31 -1.74,0.7 -1.74,1.08 -0.01,0.14 -0.06,0.29 -0.01,0.42 0.07,0.16 0.4,0.29 0.51,0.45 0.22,0.33 0.1,0.66 0.29,0.98 0.1,0.14 0.27,0.28 0.39,0.43 0.1,0.13 0.09,0.23 0.4,0.34 0.25,0.08 1.2,0.24 0.68,0.38 -0.76,-0.04 -1.4,-0.36 -1.95,-0.5 -0.12,0.09 0.22,0.26 0.2,0.37 -0.02,0.17 -0.25,0.34 -0.28,0.51 -0.08,0.2 -0.02,0.41 0.16,0.61 0.3,0.68 0.59,1.36 0.9,2.05 0.1,0.3 0.01,0.35 -0.06,0.59 -0.13,0.42 0.05,0.85 0.02,1.27 -0.02,0.45 -0.46,0.9 -0.53,1.35 -0.06,0.39 0.19,0.69 0.19,1.08 0.99,0.41 0.07,0.92 -0.28,1.34 -0.18,0.22 -0.02,0.44 0.18,0.65 0.75,0.82 1.04,1.73 0.72,2.58 -0.1,0.28 -0.44,0.53 -0.32,0.82 0.13,0.35 1.36,0.58 1.4,0.98 0.04,0.42 -0.98,0.73 -1.57,1.08 -0.5,0.31 -0.49,0.67 -0.6,1 -0.13,0.36 -0.17,0.63 -0.19,0.99 -0.01,0.21 0.05,0.4 -0.08,0.6 -0.13,0.19 -0.4,0.3 0.06,0.45 0.24,0.07 0.52,0.1 0.75,0.2 0.33,0.14 0.81,0.3 1.06,0.45 0.3,0.19 -0.02,0.28 0.72,0.34 0.47,0.03 0.99,-0.07 1.45,0 0.4,0.07 0.38,0.15 0.86,0.19 0.63,0.05 1.1,-0.1 1.67,-0.1 0.31,0.25 1.26,0.37 2.12,0.38 -1,0.02 -2.1,0.05 -3.08,-0.02 -0.57,-0.04 -0.96,-0.17 -1.56,-0.16 -0.54,0 -0.84,0.13 -1.35,0.16 -0.48,0.04 -0.75,0.03 -1.16,-0.04 -0.3,-0.05 -0.35,-0.16 -0.75,-0.1 -0.19,0.19 -0.03,0.37 0.11,0.56 0.19,0.25 -0.08,0.57 0.21,0.81 0.31,0.26 0.99,0.23 0.79,0.54 -0.21,0.33 -0.22,0.66 -0.2,0.99 0.01,0.2 -0.01,0.28 0.42,0.42 0.27,0.09 0.51,0.05 0.64,0.18 0.17,0.2 -0.49,0.33 -0.66,0.49 -0.16,0.16 -0.11,0.33 -0.29,0.5 -0.23,0.22 -0.25,0.2 -0.25,0.44 -0.01,0.36 -0.28,0.83 0.28,1.14 0.27,0.15 0.57,0.15 0.73,0.33 0.13,0.15 0.28,0.51 0.37,0.67 0.19,0.37 -0.62,0.76 -0.8,1.15 -0.13,0.27 -0.2,0.47 0.19,0.71 0.25,0.15 0.81,0.29 0.78,0.48 -0.04,0.27 -0.72,0.27 -0.98,0.47 -0.14,0.11 -0.03,0.2 -0.06,0.31 -0.11,0.4 -0.74,0.78 -1.07,1.16 -0.36,0.42 -1.83,0.73 -1.75,1.15 0.06,0.28 0.82,0.57 0.88,0.87 0.03,0.17 -0.05,0.35 -0.05,0.52 0.34,0 1.35,-0.04 1.68,-0.06 0.23,-0.01 0.41,-0.06 0.62,-0.07 0.56,-0.06 1.24,-0.07 1.83,-0.06 0.73,0 1.42,-0.06 2.15,-0.05 0.74,0.01 1.45,0.08 2.2,0.1 0.56,0.01 0.99,0.06 1.55,0.02 0.45,-0.03 0.9,-0.01 1.35,-0.03 0.39,-0.02 0.76,-0.07 1.17,-0.08 0.48,-0.02 0.93,0 1.4,-0.01 0.51,-0.01 1.02,-0.07 1.53,-0.09 0.89,-0.04 1.54,0.06 2.33,0.18 0.55,0.07 0.57,0.08 1.02,-0.03 0.61,-0.14 1.25,-0.25 1.86,-0.38 0.26,-0.06 0.54,-0.13 0.7,-0.21 0.21,-0.1 0.37,-0.23 0.49,-0.35 0.08,-0.06 0.11,-0.12 0.12,-0.18 0,0.09 0,0.18 0,0.27 0,0.18 0.01,0.36 0,0.54 0,0.11 -0.17,0.29 0.04,0.38 0.26,0.11 1.69,0.07 2.04,0.05 0.35,-0.01 0.68,-0.06 1.02,-0.08 0.39,-0.01 0.59,0.04 0.96,0.1 0.46,0.06 0.71,0.02 1.24,0 1.61,-0.05 3.29,-0.02 4.89,0.04 0.47,0.02 0.95,-0.04 1.42,-0.05 0.44,-0.01 0.32,-0.02 0.7,-0.11 0.39,-0.09 0.67,-0.1 1.13,-0.07 0.64,0.04 1.24,0.04 1.89,0.04 0.51,0 1.02,0 1.52,0 0.79,-0.01 1.55,0.04 2.32,0.05 0.46,0 0.81,0.04 1.26,0.04 1.02,0.02 2.04,0.08 3.06,0.05 0.45,-0.01 0.88,0.05 1.33,0.05 0.29,0 0.57,-0.02 0.86,-0.04 0.64,-0.02 1.3,-0.01 1.93,0 0.71,0 1.35,-0.03 2.04,-0.08 0.87,-0.07 1.8,0.12 2.58,0.22 0.37,0.04 0.75,0.09 1.12,0.13 0.26,0.03 0.73,0.13 0.99,0.1 -0.15,-0.17 -0.57,-0.29 -0.85,-0.45 -0.18,-0.11 -0.3,-0.22 -0.49,-0.33 -0.16,-0.08 -0.43,-0.2 -0.78,-0.23 -0.29,-0.02 -0.74,0.04 -1.05,0.05 -0.38,0.01 -0.75,0 -1.13,0 -0.17,0.01 -0.49,0.03 -0.66,0 -0.25,-0.03 -0.4,-0.2 -0.54,-0.27 -0.21,-0.11 -0.51,-0.2 -0.83,-0.27 -0.3,-0.08 -0.49,-0.14 -0.75,-0.23 -0.39,-0.14 -0.41,-0.25 -0.61,-0.42 -0.15,-0.14 -0.67,-0.26 -0.71,-0.4 0.55,0.03 1.39,0.22 1.73,0.35 0.36,0.13 0.68,0.22 0.79,0.39 0.18,0.27 0.48,0.28 1.38,0.33 1.02,0.07 1.93,0.23 2.97,0.28 0.19,0.01 0.62,0.02 0.85,0.01 0.2,-0.01 0.37,-0.05 0.57,-0.05 0.4,0.01 0.82,0.2 1.08,0.28 0.19,0.06 0.42,0.25 0.7,0.29 0.16,0.03 0.47,0.01 0.63,0 0.18,0 0.47,-0.02 0.64,0 0.3,0.05 0.95,0.19 1.15,0.27 0.22,-0.02 0.35,-0.09 0.57,-0.12 0.08,0 0.17,0 0.25,-0.01 0.38,-0.02 0.76,-0.06 1.14,-0.1 0.21,-0.02 0.37,-0.05 0.59,-0.04 0.43,0.03 0.66,0.14 1.11,0.12 0.31,-0.02 0.62,-0.04 0.93,-0.04 0.25,-0.01 0.52,0.01 0.75,-0.02 0.21,-0.03 0.31,-0.1 0.54,-0.11 0.18,-0.01 0.41,0.01 0.6,0.01 0.3,0 0.56,-0.02 0.85,-0.03 0.91,-0.02 1.95,-0.02 2.83,0.04 0.4,0.02 0.78,0.06 1.19,0.06 0.48,-0.01 0.95,0.02 1.42,0.06 0.77,0.06 1.49,0.17 2.26,0.23 0.63,0.04 1.27,-0.01 1.86,-0.06 0.33,-0.03 0.67,-0.07 1.01,-0.07 0.22,0 0.47,0.02 0.68,0.01 0.29,-0.01 0.46,-0.11 0.64,-0.17 -0.04,-0.11 -0.17,-0.23 -0.25,-0.34 -0.08,-0.11 -0.17,-0.21 -0.33,-0.32 -0.32,-0.22 -0.57,-0.45 -0.91,-0.67 -0.1,-0.07 -0.16,-0.12 -0.32,-0.17 -0.13,-0.04 -0.17,-0.07 -0.24,-0.13 -0.09,-0.06 -0.18,-0.11 -0.23,-0.18 -0.06,-0.07 -0.18,-0.19 -0.09,-0.26 0.13,0.02 0.23,0.08 0.32,0.12 0.19,0.07 0.36,0.13 0.48,0.21 0.11,0.09 0.2,0.17 0.32,0.26 0.09,0.06 0.07,0.12 0.17,0.18 0.11,0.07 0.29,0.12 0.4,0.19 0.23,0.14 0.28,0.29 0.44,0.44 0.37,0.33 1.47,0.58 2.29,0.81 0.28,0.01 0.54,0.04 0.83,0.05 0.38,0.01 0.73,0 1.1,-0.02 0.3,-0.02 0.61,0.01 0.92,-0.01 0.21,-0.01 0.38,-0.02 0.59,-0.02 0.39,-0.01 0.78,-0.05 1.17,-0.06 0.37,-0.02 0.76,-0.02 1.13,-0.04 0.25,-0.01 0.34,-0.04 0.52,-0.09 0.21,-0.05 0.39,-0.1 0.55,-0.16 0.05,-0.04 0.14,-0.07 0.25,-0.09 0.27,0.09 0.48,0.3 0.92,0.32 0.19,0.01 0.43,0 0.63,0 0.26,0 0.5,-0.01 0.76,-0.02 0.25,-0.02 0.56,-0.04 0.82,-0.05 0.34,-0.01 0.68,0.01 1.01,0.03 0.28,0.02 0.55,0.05 0.84,0.06 0.24,0.01 0.51,-0.01 0.75,-0.03 0.18,-0.01 0.33,-0.02 0.52,-0.01 0.22,0 0.41,0.03 0.62,0.04 0.69,0.03 1.33,0.13 2,0.19 0.2,0.02 0.37,0.04 0.58,0.03 0.21,-0.01 0.36,-0.02 0.57,-0.02 0.49,0 1,0.01 1.49,0 0.16,0 0.29,-0.02 0.44,-0.03 0.4,-0.04 0.89,-0.02 1.31,-0.02 1.01,0 2.12,-0.03 3.12,0.02 0.85,0.05 1.7,0.05 2.57,0.06 0.83,0.01 1.65,0.07 2.49,0.07 0.59,-0.01 1.19,-0.02 1.77,-0.05 0.27,-0.02 0.53,-0.03 0.81,-0.03 0.21,0 0.5,0.02 0.69,0.01 0.12,-0.02 0.3,-0.13 0.42,-0.13 0.47,-0.01 0.94,-0.03 1.41,-0.04 0.18,-0.01 0.42,0.01 0.57,-0.02 0.13,-0.02 0.2,-0.05 0.25,-0.09 0.08,-0.05 0.08,-0.18 0.29,-0.21 0.12,0.04 0.16,0.07 0.18,0.12 0.02,0.04 0.07,0.09 0.08,0.13 0.01,0.05 -0.03,0.09 0.03,0.13 0.23,0 0.46,0.03 0.69,0.04 0.28,0.02 0.57,0.03 0.86,0.05 0.29,0.02 0.59,0.07 0.89,0.05 0.1,-0.01 0.21,-0.03 0.32,-0.03 0.32,-0.02 0.71,0 1.04,0.01 0.42,0.01 0.84,0.03 1.26,0.03 0.3,0 0.59,-0.02 0.88,-0.03 0.38,-0.02 0.75,-0.04 1.12,-0.05l-3.55 -0.53 -2.79 -1.88 -2.06 -0.97 -4.71 -1.65 8.98 2.24 3.25 1.53 6.48 1.15c0.15,-0.02 0.31,-0.04 0.47,-0.05 0.39,-0.03 0.63,-0.03 0.98,-0.01 0.36,0.02 0.71,-0.01 1.06,-0.01 0.26,-0.01 0.33,-0.07 0.41,-0.13 0.29,-0.25 0.15,-0.52 0.1,-0.77 -0.04,-0.22 -0.04,-0.43 -0.08,-0.64 -0.02,-0.07 0.02,-0.17 -0.01,-0.25 -0.05,-0.02 -0.1,-0.05 -0.14,-0.08 -0.05,-0.05 -0.06,-0.11 -0.04,-0.17 0,-0.07 -0.01,-0.14 0,-0.2 0.01,-0.11 0.1,-0.23 0.19,-0.34 0.02,-0.03 0.11,-0.17 0.2,-0.18 0.24,0.53 -0.03,1.07 0.16,1.61 0.06,0.17 0.24,0.33 0.32,0.5 0.09,0.15 0.05,0.31 0.14,0.46 0.08,0.14 0.19,0.28 0.7,0.33 0.21,0.03 0.43,0 0.64,-0.01 0.24,-0.01 0.47,-0.02 0.72,-0.02 0.84,0.01 1.64,0.05 2.47,0.07 0.43,0 0.86,0.02 1.27,0.06 0.21,0.03 0.44,0.04 0.67,0.04 0.31,0 0.6,-0.02 0.91,-0.02 0.35,0 0.69,-0.02 1.01,-0.05 0.56,-0.05 1.14,-0.08 1.72,-0.1 0.52,0 1.03,0 1.53,0.03 0.14,0.02 0.29,0.02 0.43,0.02 0.1,0 0.19,0 0.27,-0.02 0.42,-0.03 0.84,-0.04 1.27,-0.04 0.17,0 1.48,-0.07 1.56,0.01 0,-0.6 0.22,-1.3 -0.26,-1.89 -0.13,-0.16 -0.29,-0.2 -0.67,-0.37 -0.09,-0.09 -0.28,-0.16 -0.57,-0.2 -0.18,0.01 -0.28,-0.02 -0.3,-0.08 -0.29,-0.14 -0.01,-0.2 0.09,-0.34 0.12,-0.18 0.02,-0.44 0,-0.62 0.02,-0.14 -0.06,-0.27 -0.25,-0.39 -0.07,-0.09 -0.24,-0.14 -0.51,-0.16 -0.48,-0.2 -0.8,-0.48 -0.94,-0.73 0.42,0 1,0.06 1.41,0.01 0.56,-0.07 0.49,-0.11 0.51,-0.32 0.06,-0.5 -0.03,-0.99 0,-1.49 0.05,-0.7 0.45,-1.4 0.52,-2.1 0.02,-0.24 -0.06,-0.48 0,-0.72 0.07,-0.3 0.33,-0.58 0.44,-0.87 0.31,-0.89 -0.15,-1.76 0.55,-2.64 0.42,-0.53 -0.22,-1 -0.58,-1.53 -0.57,-0.8 -0.69,-1.72 -0.18,-2.53 0.21,-0.34 0.6,-0.72 0.48,-1.07 -0.3,-0.87 -1.27,-1.73 -1.23,-2.62 0.05,-1.2 1.44,-2.37 1.95,-3.56 0.39,-0.9 -0.36,-1.84 -0.61,-2.74 -0.22,-0.8 -0.11,-1.61 -0.09,-2.4 0.01,-0.36 -0.2,-0.69 -0.44,-1.03 -0.21,-0.31 -0.55,-0.28 -0.55,-0.61l0 -1.78c0,-0.91 -0.15,-1.84 0.19,-2.76 0.2,-0.54 -0.03,-1.1 0.05,-1.64 0.02,-0.24 0.49,-0.39 0.52,-0.64 0.03,-0.27 -0.22,-0.51 -0.27,-0.77 -0.04,-0.25 -0.01,-0.48 -0.24,-0.73 -0.16,-0.16 -0.28,-0.32 -0.27,-0.49 0.02,-0.33 0.01,-0.67 0.02,-1 0,-0.27 0.21,-0.5 0.5,-0.76 0.45,-0.39 0.15,-0.81 0.25,-1.21 0.08,-0.29 0.42,-0.56 0.49,-0.85 0.07,-0.29 -0.09,-0.59 -0.02,-0.88 0.03,-0.16 0.47,-0.24 0.51,-0.38 0.04,-0.16 -0.97,-0.63 -1.05,-0.66 -0.33,-0.17 -0.17,-0.53 -0.61,-0.67 0.46,-0.1 1.03,-0.26 1.19,-0.39 0.19,-0.16 -0.03,-0.48 -0.03,-0.65 0,-0.17 0.05,-0.35 0.02,-0.51 -0.05,-0.27 -0.72,-0.62 -0.46,-0.88 0.18,-0.19 0.52,-0.34 0.7,-0.55 0.27,-0.31 0.44,-0.71 0.21,-1.03 -0.42,0 -0.89,0.16 -1.28,0.21 -0.4,0.05 -0.88,0.06 -1.32,0.08 -1.76,0.06 -3.51,-0.08 -5.27,-0.07 -0.98,0.01 -1.81,-0.05 -2.74,-0.14 -0.77,-0.07 -1.04,-0.08 -1.84,-0.03 -1.73,0.1 -3.22,0.1 -4.96,0.1 -1.3,-0.01 -2.45,0.03 -3.69,0.14 -0.92,0.09 -1.79,0.16 -2.76,0.16 -2.4,-0.01 -4.76,-0.17 -7.18,-0.16 -0.86,0.01 -1.6,-0.03 -2.43,-0.08 -1.55,-0.1 -3.15,-0.2 -4.74,-0.2 -1.2,0 -2.16,-0.37 -3.15,-0.15 -0.05,0.12 -0.35,0.21 -0.45,0.32 -0.1,0.12 -0.05,0.24 -0.05,0.36 0.02,0.22 0.51,0.34 0.76,0.55 1.1,-0.08 2.73,-0.01 3.56,0.23 0.62,0.19 0.39,0.25 0.07,0.43 -0.56,0.32 -1.15,0.66 -1.42,1 -0.16,0.19 -0.27,0.36 -0.26,0.56 0.01,0.15 -0.16,0.39 0.02,0.52 0.32,0.08 0.61,0.16 0.87,0.25 0.19,0.12 0.35,0.23 0.46,0.36 0.52,0.36 0.98,0.65 0.91,1.06 -0.25,-0.29 -0.63,-0.56 -1.12,-0.83 -0.59,-0.32 -0.98,-0.67 -1.37,-1.02 -0.33,-0.3 -1,-0.65 -1.05,-0.97 -0.07,-0.44 0.39,-0.87 1.19,-1.24 -1.13,0.01 -2.26,0.01 -3.38,-0.02 -0.88,-0.03 -0.9,-0.03 -1.19,-0.24 -0.34,-0.24 -0.67,-0.49 -1.01,-0.73 -0.07,-0.05 -0.27,-0.26 -0.39,-0.29 -0.4,-0.1 -1.1,0.09 -1.44,0.15 -0.62,0.12 -1.12,0.21 -1.88,0.21 -1.03,0 -2.02,-0.1 -3.06,-0.08 -1.21,0.03 -2.53,0.04 -3.73,0.11 -1.21,0.07 -2.82,0.23 -3.89,0.02 -0.88,-0.16 -1.36,-0.48 -2.2,-0.65 -0.48,-0.1 -0.69,-0.04 -1.17,0.02 -0.89,0.12 -1.93,0.2 -2.87,0.27 -0.78,0.06 -1.63,-0.01 -2.42,0.03 -0.46,0.02 -0.9,0.07 -1.37,0.09 -0.48,0.02 -1.08,0.01 -1.52,0.08 -0.35,0.05 -0.54,0.16 -0.86,0.22 -1.31,0.24 -3.67,0.07 -5.1,-0.01 -1.05,-0.05 -2.12,-0.14 -3.17,-0.17 -0.25,-0.01 -0.41,-0.02 -0.65,-0.01 -0.74,0.05 -0.68,-0.02 -1.21,0.14 -1.12,0.05 -1.74,0.35 -2.47,0.56 -0.71,0.2 -1.46,0.23 -2.44,0.24 -0.94,0.01 -2.17,0.06 -3.09,-0.02 -0.66,-0.05 -0.73,-0.17 -1.13,-0.31 -0.41,-0.14 -1.83,-0.18 -2.46,-0.23 -0.86,-0.08 -1.71,-0.15 -2.59,-0.2 -0.54,-0.03 -1.05,-0.06 -1.58,-0.02 -0.03,0 -0.19,0.05 -0.29,0.06 -2.99,0.3 -5.49,-0.68 -8.35,-0.8 0,0.03 0,0.05 -0.01,0.08 -2.19,0.19 -4.51,-0.03 -6.77,-0.01 -0.47,0 -0.85,0.05 -1.26,0.07 -0.16,0.01 -0.44,-0.01 -0.59,0.01 -0.74,0.13 -0.02,0.63 -0.29,0.84 -0.38,-0.22 0.17,-0.56 -0.23,-0.76 -0.11,-0.06 -0.64,-0.09 -0.8,-0.1 -1,-0.08 -2.12,-0.04 -3.14,-0.07 -0.7,-0.02 -1.29,-0.07 -1.91,-0.13 0.01,-0.05 -0.03,-0.06 -0.16,-0.07 -0.21,-0.02 -0.43,-0.02 -0.66,-0.02 -1.41,-0.05 -2.69,0.02 -4.1,0.02 -1.88,-0.01 -3.83,0.06 -5.68,-0.02 -1,-0.04 -1.48,-0.02 -2.43,0.08 -1.19,0.14 -2.47,0.28 -3.78,0.23 -0.73,-0.03 -1.25,-0.17 -1.93,-0.21 -0.68,-0.05 -1.45,-0.01 -2.15,-0.01 -1.99,-0.01 -4.47,0.21 -6.47,0.22 0,0.44 -0.26,0.94 0.06,1.38z"/>
 </g>
</svg>
