<?xml version="1.0" encoding="UTF-8"?>
<!DOCTYPE svg PUBLIC "-//W3C//DTD SVG 1.1//EN" "http://www.w3.org/Graphics/SVG/1.1/DTD/svg11.dtd">
<!-- Creator: CorelDRAW 2019 (64-Bit) -->
<svg xmlns="http://www.w3.org/2000/svg" xml:space="preserve" width="50px" height="50px" version="1.1" style="shape-rendering:geometricPrecision; text-rendering:geometricPrecision; image-rendering:optimizeQuality; fill-rule:evenodd; clip-rule:evenodd"
viewBox="0 0 50 50"
 xmlns:xlink="http://www.w3.org/1999/xlink"
 xmlns:xodm="http://www.corel.com/coreldraw/odm/2003">
 <defs>
  <style type="text/css">
   <![CDATA[
    .fil1 {fill:#FFDD09}
    .fil0 {fill:#FFDD09;fill-rule:nonzero}
   ]]>
  </style>
 </defs>
 <g id="Layer_x0020_1">
  <metadata id="CorelCorpID_0Corel-Layer"/>
  <path class="fil0" d="M16.96 35.32c-0.7,-0.68 -1.4,-1.37 -2.1,-2.05 -0.38,-0.38 -1.04,-0.27 -1.27,0.22 -0.03,0.08 -0.08,0.16 -0.13,0.23 -0.12,0.2 -0.11,0.51 0.05,0.67 0.44,0.4 0.87,0.81 1.33,1.18 0.36,0.3 0.76,0.57 1.16,0.84 0.07,0.05 0.24,0.06 0.29,0.01 0.31,-0.27 0.59,-0.56 0.9,-0.87l-0.23 -0.23z"/>
  <path class="fil0" d="M28.3 22.53c0.03,-0.13 0.02,-0.2 -0.07,-0.28 -0.53,-0.51 -1.05,-1.02 -1.57,-1.53 -0.31,-0.31 -0.91,-0.31 -1.22,0 -1.54,1.51 -3.08,3.01 -4.61,4.53 -0.24,0.23 -0.44,0.51 -0.59,0.8 -0.16,0.3 -0.21,0.64 0.04,0.96 0.3,0.39 0.56,0.82 0.86,1.22 0.3,0.41 0.84,0.55 1.31,0.27 0.32,-0.19 0.62,-0.43 0.89,-0.69 0.74,-0.7 1.46,-1.42 2.19,-2.13l-0.01 -0.01c0.33,-0.32 0.67,-0.65 1,-0.97 0.34,-0.33 0.67,-0.67 1.02,-0.99 0.37,-0.33 0.64,-0.7 0.76,-1.18z"/>
  <g>
   <path class="fil0" d="M11.72 16.75c0.33,-0.2 0.66,-0.41 0.99,-0.61 0.02,0.02 0.04,0.04 0.06,0.05 -0.2,0.2 -0.4,0.39 -0.6,0.59 -0.85,0.84 -1.68,1.69 -2.55,2.5 -0.33,0.3 -0.77,0.48 -1.16,0.71 -0.18,0.1 -0.37,0.18 -0.55,0.26 -0.02,-0.02 -0.04,-0.04 -0.06,-0.06 0.25,-0.24 0.49,-0.48 0.74,-0.72 0.56,-0.55 1.13,-1.08 1.66,-1.64 0.43,-0.44 0.95,-0.76 1.47,-1.08zm-7.03 9.18c0.59,0.59 1.19,1.17 1.78,1.75 0.04,0.04 0.07,0.07 0.1,0.11 0.34,0.34 0.41,0.34 0.76,0 0.25,-0.25 0.52,-0.49 0.78,-0.74 0.17,-0.16 0.33,-0.32 0.48,-0.49 0.11,-0.12 0.03,-0.23 -0.07,-0.32 -0.44,-0.42 -0.86,-0.84 -1.29,-1.27 -0.24,-0.23 -0.24,-0.24 -0.01,-0.49 0.09,-0.09 0.18,-0.18 0.28,-0.25 0.05,-0.04 0.15,-0.07 0.2,-0.05 0.38,0.18 0.8,0.27 1.07,0.66 0.17,0.25 0.41,0.44 0.63,0.65 0.04,0.04 0.19,0.04 0.23,0 0.52,-0.51 1.04,-1.02 1.55,-1.55 0.18,-0.19 0.17,-0.33 -0.03,-0.5 -0.44,-0.38 -0.88,-0.74 -1.33,-1.12 -0.02,-0.02 -0.04,-0.04 -0.08,-0.08 0.28,-0.27 0.54,-0.54 0.83,-0.8 0.02,-0.02 0.15,0.02 0.2,0.06 0.45,0.37 0.89,0.77 1.35,1.13 0.24,0.19 0.42,0.38 0.43,0.7 0.01,0.11 0.15,0.22 0.25,0.31 0.27,0.27 0.27,0.55 0.02,0.83 -0.49,0.55 -0.95,1.12 -1.45,1.66 -0.5,0.55 -1.03,1.08 -1.54,1.61 -0.05,0.05 -0.13,0.07 -0.19,0.11 -0.22,0.14 -0.46,0.24 -0.65,0.42 -0.44,0.4 -0.84,0.83 -1.28,1.23 -0.07,0.07 -0.2,0.09 -0.3,0.12 -0.12,0.03 -0.27,0.02 -0.34,0.09 -0.17,0.17 -0.28,0.1 -0.42,-0.04 -0.86,-0.85 -1.74,-1.7 -2.61,-2.56 -0.1,-0.1 -0.21,-0.2 -0.31,-0.31 -0.11,-0.12 -0.08,-0.22 0.04,-0.32 0.18,-0.18 0.37,-0.35 0.54,-0.54 0.14,-0.16 0.25,-0.14 0.38,-0.01zm12.58 -12.02c0.03,-0.01 0.1,0.05 0.13,0.09 0.17,0.28 0.38,0.54 0.47,0.84 0.07,0.26 0.13,0.57 -0.16,0.8 -0.28,0.21 -0.52,0.46 -0.78,0.69 -0.16,0.13 -0.21,0.27 -0.18,0.49 0.17,1.09 0.32,2.19 0.47,3.28 0.03,0.19 0.02,0.4 0.09,0.57 0.06,0.13 0.21,0.25 0.34,0.34 0.12,0.07 0.23,-0.01 0.33,-0.11 0.8,-0.79 1.61,-1.58 2.42,-2.38 0.28,-0.28 0.29,-0.28 0.57,-0.01 0.28,0.26 0.58,0.51 0.87,0.76 0.13,0.11 0.17,0.21 0.11,0.39 -0.11,0.35 -0.27,0.66 -0.56,0.91 -1.01,0.88 -2,1.79 -3,2.68 -0.62,0.55 -1.25,1.1 -1.88,1.65 -0.1,0.1 -0.2,0.21 -0.3,0.31 -0.11,0.12 -0.23,0.13 -0.35,0.01 -0.37,-0.39 -0.75,-0.77 -1.13,-1.15 -0.11,-0.12 -0.07,-0.21 0.03,-0.31 0.32,-0.3 0.63,-0.61 0.95,-0.91 0.18,-0.18 0.25,-0.37 0.19,-0.62 -0.21,-0.99 -0.39,-1.97 -0.59,-2.96 -0.07,-0.35 -0.14,-0.69 -0.22,-1.04 -0.05,-0.22 -0.12,-0.24 -0.3,-0.08 -0.18,0.16 -0.35,0.34 -0.53,0.52 -0.77,0.75 -1.53,1.5 -2.3,2.26 -0.06,0.06 -0.13,0.11 -0.25,0.21 -0.19,-0.31 -0.37,-0.59 -0.54,-0.87 -0.07,-0.12 -0.11,-0.27 -0.21,-0.37 -0.2,-0.21 -0.1,-0.34 0.07,-0.51 1.75,-1.71 3.5,-3.42 5.24,-5.14 0.29,-0.28 0.65,-0.27 1,-0.34zm8.61 -9.04c0.35,-0.35 1.18,-0.34 1.53,0.01 0.38,0.37 0.74,0.75 1.14,1.1 0.21,0.19 0.47,0.31 0.7,0.47 0.15,0.1 0.3,0.19 0.3,0.4 -0.01,0.14 0.06,0.27 0.07,0.41 0.04,0.44 -0.17,0.76 -0.48,1.06 -0.61,0.58 -1.21,1.17 -1.8,1.76 -0.1,0.1 -0.19,0.13 -0.34,0.09 -0.43,-0.11 -0.69,-0.43 -0.93,-0.75 -0.13,-0.18 -0.03,-0.53 0.18,-0.73 0.43,-0.43 0.87,-0.86 1.3,-1.28 0.26,-0.26 0.27,-0.38 0.01,-0.63 -0.17,-0.16 -0.36,-0.3 -0.56,-0.42 -0.19,-0.12 -0.4,-0.06 -0.55,0.08 -0.46,0.41 -0.9,0.85 -1.36,1.26 -0.58,0.53 -0.61,1.18 -0.49,1.88 0.02,0.12 0.14,0.24 0.23,0.34 0.39,0.39 0.78,0.78 1.19,1.16 0.17,0.17 0.17,0.33 0.06,0.51 -0.05,0.08 -0.12,0.15 -0.19,0.22 -0.66,0.65 -1.32,1.29 -1.98,1.94l0 0c-0.67,0.66 -1.32,1.34 -2.03,1.97 -0.38,0.35 -0.9,0.43 -1.42,0.35 -0.06,-0.01 -0.12,-0.08 -0.17,-0.13 -0.58,-0.56 -1.14,-1.15 -1.75,-1.68 -0.38,-0.34 -0.36,-0.74 -0.26,-1.13 0.16,-0.62 0.54,-1.14 1,-1.61 0.52,-0.52 1.04,-1.04 1.56,-1.56 0.22,-0.22 0.39,-0.24 0.61,0 0.19,0.21 0.38,0.45 0.55,0.68 0.11,0.15 0.05,0.47 -0.1,0.61 -0.46,0.46 -0.91,0.93 -1.4,1.36 -0.39,0.36 -0.32,0.91 0.26,1.17 0.37,0.16 0.68,0.11 0.96,-0.15 0.6,-0.58 1.2,-1.17 1.78,-1.76 0.19,-0.19 0.16,-0.36 -0.04,-0.55 -0.33,-0.31 -0.65,-0.64 -0.99,-0.95 -0.3,-0.29 -0.43,-0.67 -0.48,-1.06 -0.03,-0.17 0.06,-0.39 0.15,-0.55 0.16,-0.27 0.34,-0.55 0.56,-0.77 1.05,-1.05 2.11,-2.08 3.18,-3.12zm-1.52 9.29c0.6,-0.13 1.19,-0.27 1.78,-0.4 0.44,-0.1 0.89,-0.2 1.33,-0.31 0.29,-0.08 0.54,-0.23 0.76,-0.46 0.89,-0.89 1.8,-1.76 2.7,-2.63 0.12,-0.11 0.24,-0.22 0.35,-0.34 0.18,-0.19 0.38,-0.28 0.65,-0.34 0.29,-0.07 0.46,-0.06 0.69,0.14 0.19,0.17 0.27,0.35 0.31,0.57 0.09,0.35 0.03,0.64 -0.29,0.91 -0.52,0.42 -0.97,0.93 -1.46,1.4l-0.01 -0.01c-0.55,0.54 -1.09,1.08 -1.65,1.61 -0.22,0.21 -0.22,0.47 -0.24,0.72 -0.08,0.72 -0.12,1.44 -0.17,2.16 -0.03,0.39 -0.05,0.78 -0.07,1.17 -0.01,0.18 -0.14,0.31 -0.32,0.29 -0.31,-0.02 -0.62,-0.05 -0.93,-0.08 -0.28,-0.03 -0.44,-0.22 -0.41,-0.5 0.08,-0.72 0.17,-1.44 0.26,-2.16 0.01,-0.15 0.05,-0.29 0.05,-0.44 0,-0.13 -0.06,-0.26 -0.23,-0.24 -0.44,0.05 -0.89,0.13 -1.33,0.16 -0.7,0.05 -1.4,0.09 -2.09,0.1 -0.27,0.01 -0.41,-0.16 -0.41,-0.41 -0.03,-0.63 0.1,-0.78 0.73,-0.91zm6.25 3.62c0.62,0.61 1.25,1.22 1.86,1.85 0.18,0.18 0.29,0.22 0.48,0.04 0.41,-0.39 0.81,-0.79 1.21,-1.18 0.13,-0.14 0.15,-0.27 -0.01,-0.42 -0.42,-0.39 -0.81,-0.8 -1.23,-1.19 -0.16,-0.15 -0.15,-0.26 0.01,-0.39 0.07,-0.06 0.13,-0.12 0.19,-0.18 0.13,-0.14 0.26,-0.19 0.41,-0.04 0.02,0.01 0.03,0.03 0.04,0.03 0.62,0.06 0.85,0.6 1.23,0.95 0.29,0.26 0.31,0.27 0.59,-0.02 0.34,-0.35 0.72,-0.69 1.06,-1.04 0.37,-0.37 0.33,-0.58 -0.09,-0.9 -0.37,-0.27 -0.72,-0.57 -1.1,-0.88 0.24,-0.24 0.49,-0.49 0.75,-0.73 0.03,-0.03 0.14,-0.02 0.18,0.01 0.34,0.25 0.67,0.52 1,0.78 0.16,0.13 0.32,0.24 0.46,0.38 0.09,0.07 0.21,0.19 0.2,0.28 -0.04,0.29 0.18,0.42 0.32,0.59 0.18,0.21 0.2,0.49 0.02,0.69 -0.9,1 -1.8,1.99 -2.71,2.98 -0.06,0.07 -0.14,0.15 -0.22,0.18 -0.39,0.11 -0.64,0.39 -0.9,0.66 -0.29,0.31 -0.61,0.59 -0.91,0.89 -0.11,0.11 -0.22,0.17 -0.39,0.12 -0.06,-0.02 -0.19,0.02 -0.24,0.07 -0.13,0.12 -0.22,0.11 -0.34,-0.01 -0.81,-0.8 -1.63,-1.6 -2.44,-2.39 -0.08,-0.08 -0.18,-0.14 -0.26,-0.22 -0.1,-0.1 -0.22,-0.21 -0.04,-0.36 0.19,-0.17 0.37,-0.35 0.55,-0.54 0.11,-0.12 0.22,-0.11 0.32,-0.01zm-9.46 16.31c-1.03,1.05 -2.06,2.1 -3.09,3.15 -0.4,0.41 -0.8,0.83 -1.19,1.25 -0.11,0.12 -0.19,0.13 -0.35,0.06 -0.77,-0.36 -1.33,-0.96 -1.93,-1.52 -0.88,-0.81 -1.75,-1.64 -2.66,-2.44 -0.46,-0.4 -0.53,-0.87 -0.33,-1.39 0.27,-0.68 0.68,-1.28 1.4,-1.57 0.21,-0.09 0.48,-0.09 0.72,-0.08 0.21,0.01 0.36,0.01 0.53,-0.16 0.62,-0.63 1.27,-1.24 1.92,-1.85 0.23,-0.22 0.44,-0.2 0.67,0.02 0.13,0.13 0.25,0.26 0.4,0.38 0.16,0.13 0.15,0.29 0.14,0.46 -0.01,0.53 -0.46,0.78 -0.72,1.14 -0.2,0.28 -0.46,0.51 -0.66,0.79 -0.05,0.08 -0.06,0.26 -0.01,0.34 0.21,0.31 0.45,0.61 0.85,0.72 0.09,0.03 0.17,0.12 0.25,0.19 0.24,0.22 0.47,0.45 0.71,0.68 0.11,0.12 0.23,0.15 0.35,0.02 0.37,-0.38 0.72,-0.77 1.09,-1.14 0.2,-0.22 0.42,-0.42 0.64,-0.62 0.17,-0.16 0.3,-0.14 0.36,0.09 0.05,0.17 0.09,0.28 0.32,0.3 0.29,0.03 0.72,0.62 0.71,0.91 -0.01,0.09 -0.06,0.2 -0.12,0.27zm18.41 -17.3c0.22,0.17 0.4,0.37 0.6,0.57 0.34,0.34 0.32,0.33 0.13,0.81 -0.22,0.56 -0.41,1.14 -0.62,1.71 -0.27,0.69 -0.56,1.38 -0.83,2.07 -0.11,0.28 -0.21,0.56 -0.31,0.84 -0.09,0.27 -0.06,0.33 0.24,0.38 0.57,0.09 1.15,0.17 1.73,0.26 0.7,0.1 1.39,0.2 2.09,0.31 0.1,0.01 0.22,0.04 0.32,0.03 0.1,-0.01 0.23,-0.02 0.3,-0.08 0.31,-0.3 0.59,-0.62 0.9,-0.93 0.14,-0.13 0.25,-0.32 0.53,-0.22 0.08,0.03 0.21,-0.14 0.34,-0.2 0.08,-0.03 0.2,-0.05 0.26,-0.01 0.32,0.17 0.42,0.42 0.36,0.77 -0.01,0.06 0.02,0.15 0.07,0.2 0.11,0.13 0.24,0.25 0.37,0.38 0.22,0.21 0.22,0.24 0,0.45 -1.55,1.52 -3.1,3.04 -4.65,4.57 -0.32,0.3 -0.64,0.61 -0.95,0.91 -0.03,0.03 -0.07,0.06 -0.09,0.08 -0.19,0.15 -0.61,0 -0.86,-0.18 -0.15,-0.11 -0.26,-0.28 -0.41,-0.4 -0.47,-0.36 -0.37,-0.77 0.01,-1.14 0.6,-0.59 1.2,-1.17 1.8,-1.77 0.07,-0.07 0.14,-0.21 0.11,-0.3 -0.02,-0.08 -0.16,-0.17 -0.26,-0.19 -0.68,-0.14 -1.37,-0.26 -2.05,-0.4 -0.82,-0.16 -1.63,-0.33 -2.45,-0.49 -0.61,-0.13 -1.22,-0.23 -1.83,-0.38 -0.23,-0.06 -0.45,-0.21 -0.66,-0.35 -0.21,-0.14 -0.25,-0.36 -0.22,-0.59 0.07,-0.45 0.15,-0.9 0.23,-1.38 0.42,0.01 0.83,0.02 1.23,0.04 0.38,0.01 0.75,0.04 1.12,0.06 0.23,0.01 0.39,-0.08 0.47,-0.29 0.23,-0.58 0.45,-1.16 0.69,-1.74 0.29,-0.75 0.6,-1.5 0.9,-2.25 0.09,-0.24 0.18,-0.48 0.28,-0.72 0.01,-0.05 0.03,-0.09 0.05,-0.14 0.24,-0.53 0.59,-0.63 1.06,-0.29zm-1.66 15.61c-1.76,1.71 -3.51,3.43 -5.27,5.14 -0.17,0.16 -0.32,0.34 -0.51,0.48 -0.24,0.18 -0.97,0.11 -1.18,-0.1 -0.2,-0.19 -0.39,-0.4 -0.61,-0.58 -0.24,-0.19 -0.29,-0.41 -0.25,-0.7 0.13,-1.04 0.23,-2.07 0.33,-3.11 0.02,-0.19 0,-0.36 -0.28,-0.43 -0.4,-0.11 -0.77,-0.32 -1.16,-0.47 -0.48,-0.17 -0.96,-0.33 -1.44,-0.46 -0.43,-0.12 -0.87,-0.29 -1.3,-0.27 -0.51,0.03 -0.7,-0.3 -0.9,-0.6 -0.07,-0.11 0.03,-0.4 0.13,-0.55 0.19,-0.27 0.43,-0.49 0.66,-0.72 1.57,-1.54 3.14,-3.08 4.72,-4.61 0.19,-0.19 0.26,-0.19 0.45,0.02 0.1,0.1 0.19,0.22 0.3,0.3 0.15,0.1 0.31,0.16 0.47,0.23 0.13,0.06 0.34,0.1 0.39,0.2 0.08,0.18 0.03,0.39 -0.15,0.56 -1.01,0.96 -2.01,1.92 -3.02,2.89 -0.22,0.21 -0.44,0.42 -0.65,0.64 -0.06,0.05 -0.1,0.12 -0.16,0.19 0.39,0.23 0.79,0.33 1.2,0.43 0.32,0.07 0.62,0.21 0.93,0.32 0.22,0.07 0.45,0.12 0.67,0.19 0.31,0.09 0.63,0.17 0.91,0.31 0.09,0.05 0.12,0.28 0.11,0.42 -0.02,0.61 -0.07,1.22 -0.1,1.83 0,0.11 0.08,0.22 0.12,0.33 0.33,-0.32 0.63,-0.61 0.92,-0.9 0.83,-0.85 1.66,-1.69 2.49,-2.54 0.05,-0.06 0.12,-0.11 0.18,-0.16 0.29,-0.26 0.61,-0.25 0.92,0 0.13,0.11 0.29,0.19 0.45,0.23 0.37,0.1 0.51,0.27 0.53,0.65 0,0.11 0.05,0.23 0.12,0.32 0.18,0.22 0.18,0.32 -0.02,0.52zm-10.5 9.25c0.61,-0.52 1.28,-0.99 1.92,-1.48 0.01,0.02 0.02,0.03 0.03,0.05 -1.11,1.18 -2.25,2.33 -3.7,3.14 0.58,-0.57 1.14,-1.17 1.75,-1.71zm-2.13 4.63c-0.05,0.05 -0.12,0.1 -0.16,0.17 -0.29,0.43 -0.71,0.39 -1.14,0.33 -0.1,-0.02 -0.19,-0.11 -0.27,-0.19 -0.58,-0.54 -1.15,-1.09 -1.73,-1.63 -1.04,-0.98 -2.07,-1.95 -3.12,-2.92 -0.18,-0.16 -0.2,-0.27 0,-0.43 0.16,-0.13 0.3,-0.29 0.44,-0.44 0.28,-0.27 0.58,-0.27 0.87,0 0.49,0.44 0.98,0.88 1.47,1.31 0.26,0.23 0.33,0.23 0.58,-0.02 1.41,-1.37 2.82,-2.73 4.22,-4.11 0.28,-0.28 0.55,-0.5 0.97,-0.46 0.09,0.01 0.19,0.05 0.27,0.11 0.12,0.09 0.21,0.21 0.32,0.32 0.18,0.16 0.26,0.31 0.27,0.6 0.01,0.41 -0.2,0.61 -0.43,0.85 -0.64,0.62 -1.28,1.24 -1.91,1.87l0.01 0.01c-0.73,0.71 -1.47,1.43 -2.2,2.15 -0.23,0.23 -0.22,0.28 0.02,0.49 0.5,0.44 1.01,0.88 1.51,1.33 0.19,0.17 0.18,0.47 0.01,0.66zm-3.49 -9.06c-0.13,-0.14 -0.25,-0.13 -0.39,-0.01 -0.66,0.58 -1.32,1.16 -1.98,1.75 -0.37,0.34 -0.77,0.3 -1,-0.15 -0.1,-0.2 -0.16,-0.43 -0.22,-0.65 -0.01,-0.06 0.05,-0.16 0.11,-0.21 0.79,-0.83 1.6,-1.65 2.39,-2.47 0.44,-0.45 0.85,-0.92 1.3,-1.36 0.4,-0.39 0.83,-0.76 1.25,-1.13 0.16,-0.14 0.32,-0.09 0.45,0.05 0.03,0.03 0.07,0.06 0.1,0.1 0.54,0.52 0.54,1 0.01,1.54 -0.36,0.36 -0.7,0.72 -1.06,1.09 -0.12,0.13 -0.13,0.25 0.01,0.38 0.35,0.34 0.69,0.69 1.05,1.03 0.07,0.07 0.18,0.11 0.32,0.2 0.43,-0.42 0.88,-0.82 1.28,-1.27 0.25,-0.27 0.59,-0.27 0.89,-0.37 0.04,-0.02 0.15,0.06 0.18,0.11 0.14,0.28 0.31,0.56 0.39,0.85 0.03,0.12 -0.11,0.32 -0.22,0.43 -0.21,0.23 -0.46,0.43 -0.68,0.64 -1.32,1.29 -2.64,2.58 -3.95,3.88 -0.18,0.17 -0.28,0.19 -0.47,0.01 -0.24,-0.23 -0.53,-0.41 -0.79,-0.6 -0.11,-0.08 -0.11,-0.39 0.01,-0.53 0.08,-0.09 0.18,-0.18 0.27,-0.26 0.59,-0.58 1.17,-1.15 1.76,-1.72 0.12,-0.12 0.14,-0.21 0.01,-0.34 -0.35,-0.32 -0.69,-0.65 -1.02,-0.99zm-4.19 -10.95c0.12,-0.32 0.3,-0.61 0.46,-0.91 0.05,-0.09 0.12,-0.17 0.2,-0.24 0.86,-0.78 1.72,-1.56 2.59,-2.33 0.86,-0.77 1.73,-1.52 2.6,-2.29 0.45,-0.41 0.89,-0.83 1.35,-1.23 0.3,-0.27 0.6,-0.53 0.93,-0.76 0.45,-0.31 1.06,-0.24 1.45,0.15 0.51,0.5 1.02,1 1.53,1.5l0 0c0.53,0.53 1.09,1.04 1.61,1.59 0.34,0.36 0.41,0.82 0.3,1.29 -0.05,0.2 -0.1,0.41 -0.19,0.6 -0.09,0.19 -0.22,0.37 -0.37,0.52 -0.62,0.63 -1.25,1.24 -1.88,1.86 -0.14,0.13 -0.27,0.24 -0.48,0.11 -0.06,-0.03 -0.19,0.01 -0.25,0.05 -0.86,0.68 -1.71,1.36 -2.56,2.05 -0.79,0.64 -1.57,1.29 -2.36,1.93 -0.6,0.49 -1.25,0.44 -1.92,0.16 -0.6,-0.25 -1.02,-0.69 -1.43,-1.16 -0.34,-0.4 -0.7,-0.81 -1.14,-1.1 -0.77,-0.52 -0.72,-1.1 -0.44,-1.79zm-4.96 5c-0.36,0.31 -0.7,0.63 -1.04,0.96 -0.14,0.12 -0.26,0.26 -0.38,0.4 -0.11,0.12 -0.23,0.18 -0.41,0.13 -0.07,-0.03 -0.19,0.02 -0.25,0.08 -0.14,0.15 -0.24,0.09 -0.36,-0.02 -0.57,-0.56 -1.15,-1.12 -1.72,-1.68 -0.29,-0.29 -0.59,-0.57 -0.87,-0.86 -0.19,-0.19 -0.17,-0.27 0.03,-0.44 0.13,-0.11 0.23,-0.25 0.35,-0.36 0.18,-0.18 0.31,-0.18 0.49,0 0.64,0.63 1.28,1.26 1.92,1.89 0.11,-0.05 0.2,-0.08 0.26,-0.13 0.41,-0.4 0.82,-0.79 1.22,-1.2 0.12,-0.13 0.1,-0.28 -0.04,-0.42 -0.44,-0.41 -0.86,-0.84 -1.32,-1.28 0.17,-0.16 0.3,-0.33 0.47,-0.44 0.07,-0.04 0.22,0.02 0.34,0.04 0.6,0.08 0.81,0.64 1.24,0.94 0.08,0.06 0.15,0.14 0.25,0.24 0.53,-0.57 1.16,-1.03 1.59,-1.67l-1.42 -1.39c0.22,-0.21 0.43,-0.43 0.67,-0.64 0.05,-0.04 0.19,-0.03 0.25,0.01 0.49,0.4 0.98,0.81 1.47,1.22 0.05,0.04 0.1,0.12 0.09,0.17 -0.03,0.28 0.12,0.44 0.31,0.61 0.16,0.15 0.2,0.39 0.06,0.54 -0.9,1.02 -1.81,2.03 -2.73,3.02 -0.12,0.13 -0.33,0.17 -0.47,0.28zm36.07 -6.91l-23.16 -22.69 -24.29 23.8 23.15 22.69 24.3 -23.8zm-24.3 23.8l24.3 -23.8 -24.3 23.8z"/>
  </g>
  <rect class="fil1" transform="matrix(-0.337565 -0.32677 0.337565 -0.32677 24.3242 47.8177)" width="66.97" height="72.2"/>
  <path class="fil0" d="M15.93 11.69l10.22 -9.01 11.81 11.58 6.3 6.17 3.58 3.77 -8.05 7.57 -4.23 4.14 -6.58 6.45c-0.11,0.11 -2.5,3.76 -2.5,3.76l-2.08 2.04 -12.19 -11.95 -10.4 -10.69 14.12 -13.83zm-8.36 36.2c-0.01,-0.19 -0.02,-0.41 0.01,-0.6 0,-0.08 0.03,-0.13 0.05,-0.2 0.03,-0.13 0.02,-0.27 0.11,-0.39 0.07,-0.09 0.18,-0.11 0.26,-0.18 0.11,-0.09 0.18,-0.29 0.24,-0.4 -0.01,0.13 -0.03,0.25 -0.05,0.38 -0.01,0.07 0.03,0.27 -0.01,0.35 -0.03,0.04 -0.11,0.1 -0.15,0.14 -0.06,0.07 -0.14,0.13 -0.2,0.2 -0.17,0.21 -0.2,0.47 -0.2,0.72 0,0.14 0,0.28 0,0.43 -0.01,-0.15 -0.05,-0.3 -0.06,-0.45zm-7.18 -46.14c0.04,0.18 0.03,0.27 -0.02,0.45 -0.04,0.12 -0.21,0.35 -0.15,0.46 0.16,-0.01 0.25,-0.14 0.41,-0.14 0.17,0 0.32,0.17 0.43,0.26 0.37,0.33 1.1,0.26 1.63,0.24 -0.08,0.01 -0.16,0.03 -0.25,0.05 -0.13,0.02 -0.26,0 -0.4,0.03 -0.06,0.01 -0.12,0.04 -0.19,0.05 -0.22,0.04 -0.44,0.04 -0.65,0.07 -0.42,0.06 -1.18,0.24 -0.95,0.71 0.13,0.27 0.17,0.61 0.1,0.91 -0.02,0.08 -0.05,0.22 -0.08,0.3 -0.05,0.1 -0.16,0.15 -0.15,0.27l2.02 -0.63 1.91 0.78 1.14 0.27 2.23 0.19 -3.69 0.31 -1.8 -0.42 -1.36 0.32c0.01,0.15 -0.02,0.29 -0.04,0.46 -0.02,0.16 -0.1,0.29 -0.09,0.45 0.03,0.31 0.18,0.58 0.18,0.89 0,0.47 -0.04,0.91 -0.08,1.38 -0.05,0.52 0.04,1.04 0.24,1.54 0.32,0.78 0.55,1.7 0,2.46 -0.22,0.3 -0.58,0.68 -0.58,1.06 0,0.13 -0.02,0.28 -0.01,0.41 0.03,0.15 0.14,0.28 0.18,0.44 0.07,0.32 0.03,0.64 0.09,0.95 0.03,0.15 0.09,0.29 0.13,0.42 0.04,0.14 0.03,0.23 0.14,0.34 0.08,0.08 0.4,0.24 0.22,0.38 -0.25,-0.04 -0.47,-0.36 -0.65,-0.49 -0.04,0.08 0.08,0.25 0.07,0.35 -0.01,0.17 -0.08,0.33 -0.09,0.51 -0.03,0.2 -0.01,0.39 0.05,0.59 0.1,0.67 0.2,1.34 0.3,2.01 0.03,0.29 0,0.35 -0.02,0.58 -0.04,0.41 0.01,0.83 0.01,1.24 -0.01,0.45 -0.16,0.88 -0.18,1.33 -0.02,0.38 0.06,0.67 0.06,1.05 0.33,0.41 0.03,0.91 -0.09,1.32 -0.06,0.21 -0.01,0.43 0.06,0.64 0.25,0.8 0.35,1.69 0.24,2.52 -0.03,0.28 -0.15,0.52 -0.11,0.8 0.05,0.35 0.46,0.58 0.47,0.97 0.02,0.41 -0.32,0.71 -0.52,1.06 -0.17,0.29 -0.17,0.65 -0.21,0.97 -0.04,0.35 -0.05,0.62 -0.06,0.98 0,0.2 0.02,0.38 -0.02,0.58 -0.05,0.19 -0.14,0.29 0.01,0.44 0.08,0.07 0.18,0.1 0.26,0.2 0.11,0.14 0.27,0.29 0.35,0.44 0.1,0.18 -0.01,0.27 0.24,0.33 0.16,0.03 0.33,-0.07 0.49,0.01 0.13,0.06 0.12,0.14 0.28,0.18 0.21,0.04 0.37,-0.1 0.56,-0.1 0.1,0.24 0.42,0.36 0.71,0.37 -0.34,0.02 -0.7,0.05 -1.03,-0.02 -0.19,-0.03 -0.32,-0.16 -0.52,-0.16 -0.18,0 -0.28,0.13 -0.45,0.17 -0.16,0.03 -0.25,0.02 -0.39,-0.05 -0.1,-0.05 -0.12,-0.16 -0.25,-0.1 -0.06,0.19 -0.01,0.37 0.04,0.55 0.06,0.25 -0.03,0.56 0.06,0.8 0.11,0.26 0.34,0.23 0.27,0.52 -0.07,0.33 -0.07,0.65 -0.07,0.98 0.01,0.2 0,0.27 0.14,0.41 0.09,0.08 0.17,0.04 0.22,0.18 0.05,0.19 -0.17,0.31 -0.22,0.47 -0.06,0.16 -0.04,0.33 -0.1,0.49 -0.08,0.22 -0.08,0.2 -0.08,0.43 -0.01,0.36 -0.1,0.82 0.09,1.12 0.09,0.15 0.19,0.15 0.24,0.32 0.05,0.15 0.1,0.5 0.13,0.66 0.06,0.37 -0.21,0.74 -0.27,1.13 -0.04,0.27 -0.07,0.45 0.06,0.7 0.09,0.14 0.27,0.28 0.26,0.47 -0.01,0.26 -0.24,0.26 -0.32,0.46 -0.05,0.11 -0.01,0.19 -0.02,0.3 -0.04,0.39 -0.25,0.76 -0.36,1.13 -0.12,0.41 -0.61,0.72 -0.58,1.13 0.01,0.28 0.27,0.56 0.29,0.86 0.01,0.16 -0.02,0.34 -0.02,0.5 0.12,0 0.45,-0.03 0.56,-0.05 0.08,-0.02 0.14,-0.06 0.21,-0.08 0.19,-0.05 0.42,-0.06 0.61,-0.06 0.24,0.01 0.48,-0.05 0.72,-0.04 0.25,0 0.49,0.08 0.73,0.09 0.19,0.02 0.34,0.06 0.52,0.03 0.15,-0.03 0.3,-0.02 0.45,-0.04 0.13,-0.02 0.26,-0.06 0.39,-0.07 0.16,-0.02 0.31,0 0.47,-0.01 0.17,-0.01 0.34,-0.07 0.51,-0.09 0.3,-0.04 0.52,0.06 0.78,0.17 0.19,0.08 0.19,0.09 0.34,-0.02 0.2,-0.14 0.42,-0.25 0.62,-0.38 0.09,-0.05 0.18,-0.12 0.24,-0.2 0.07,-0.1 0.12,-0.23 0.16,-0.34 0.03,-0.06 0.04,-0.12 0.04,-0.18 0,0.09 0,0.18 0,0.26 0,0.18 0,0.36 0,0.54 0,0.1 -0.06,0.28 0.01,0.37 0.09,0.1 0.57,0.06 0.69,0.05 0.11,-0.02 0.22,-0.07 0.34,-0.08 0.13,-0.01 0.19,0.04 0.32,0.09 0.15,0.06 0.23,0.02 0.41,0.01 0.54,-0.06 1.1,-0.02 1.63,0.03 0.16,0.02 0.32,-0.04 0.48,-0.04 0.15,-0.01 0.1,-0.03 0.23,-0.11 0.13,-0.09 0.23,-0.1 0.38,-0.07 0.21,0.03 0.41,0.04 0.63,0.03 0.17,0 0.34,0 0.51,0 0.26,0 0.52,0.05 0.78,0.05 0.15,0 0.26,0.04 0.41,0.05 0.34,0.02 0.69,0.08 1.03,0.05 0.15,-0.02 0.29,0.05 0.44,0.05 0.1,0 0.19,-0.03 0.29,-0.04 0.21,-0.03 0.43,-0.01 0.64,-0.01 0.24,0 0.45,-0.03 0.69,-0.08 0.28,-0.06 0.6,0.12 0.86,0.22 0.12,0.04 0.24,0.09 0.37,0.13 0.09,0.03 0.24,0.12 0.33,0.1 -0.05,-0.17 -0.19,-0.29 -0.28,-0.45 -0.06,-0.1 -0.1,-0.21 -0.17,-0.31 -0.05,-0.09 -0.14,-0.21 -0.26,-0.23 -0.09,-0.02 -0.25,0.04 -0.35,0.05 -0.13,0 -0.25,0 -0.37,0 -0.06,0 -0.17,0.02 -0.23,0 -0.08,-0.03 -0.13,-0.2 -0.18,-0.27 -0.07,-0.1 -0.17,-0.19 -0.28,-0.27 -0.1,-0.07 -0.16,-0.13 -0.24,-0.22 -0.13,-0.13 -0.14,-0.24 -0.21,-0.41 -0.05,-0.14 -0.22,-0.25 -0.24,-0.39 0.19,0.03 0.47,0.22 0.58,0.34 0.12,0.13 0.23,0.22 0.27,0.38 0.06,0.27 0.16,0.28 0.46,0.33 0.34,0.06 0.64,0.22 0.99,0.27 0.06,0.01 0.21,0.02 0.28,0.01 0.07,-0.01 0.13,-0.05 0.19,-0.05 0.14,0.01 0.28,0.19 0.36,0.28 0.07,0.06 0.15,0.24 0.24,0.28 0.05,0.03 0.15,0.01 0.21,0 0.06,0 0.16,-0.02 0.21,0 0.1,0.05 0.32,0.18 0.39,0.26 0.07,-0.02 0.11,-0.08 0.19,-0.11 0.02,-0.01 0.05,-0.01 0.08,-0.01 0.13,-0.03 0.25,-0.06 0.38,-0.1 0.07,-0.02 0.12,-0.05 0.2,-0.04 0.14,0.03 0.22,0.14 0.37,0.12 0.1,-0.02 0.21,-0.04 0.31,-0.04 0.08,-0.01 0.17,0.01 0.25,-0.02 0.07,-0.03 0.1,-0.1 0.18,-0.11 0.06,0 0.14,0.01 0.2,0.01 0.1,0 0.19,-0.02 0.29,-0.03 0.3,-0.02 0.64,-0.02 0.94,0.04 0.13,0.02 0.26,0.06 0.4,0.06 0.16,-0.01 0.32,0.02 0.47,0.06 0.26,0.06 0.5,0.17 0.76,0.22 0.21,0.04 0.42,-0.01 0.62,-0.06 0.11,-0.02 0.22,-0.06 0.34,-0.06 0.07,-0.01 0.15,0.01 0.22,0 0.1,-0.01 0.15,-0.1 0.22,-0.16 -0.02,-0.11 -0.06,-0.22 -0.09,-0.33 -0.03,-0.11 -0.06,-0.21 -0.11,-0.31 -0.1,-0.22 -0.19,-0.45 -0.3,-0.66 -0.03,-0.07 -0.06,-0.12 -0.11,-0.17 -0.04,-0.04 -0.06,-0.07 -0.08,-0.13 -0.03,-0.06 -0.06,-0.11 -0.08,-0.17 -0.02,-0.07 -0.06,-0.19 -0.03,-0.26 0.05,0.02 0.08,0.08 0.11,0.12 0.06,0.07 0.12,0.13 0.16,0.21 0.04,0.08 0.07,0.17 0.11,0.25 0.03,0.06 0.02,0.12 0.06,0.18 0.03,0.06 0.09,0.12 0.13,0.18 0.08,0.14 0.09,0.28 0.15,0.43 0.12,0.32 0.49,0.57 0.76,0.8 0.09,0 0.18,0.03 0.28,0.04 0.12,0.01 0.24,0.01 0.37,-0.01 0.1,-0.02 0.2,0 0.3,-0.01 0.07,-0.01 0.13,-0.02 0.2,-0.02 0.13,-0.01 0.26,-0.05 0.39,-0.07 0.12,-0.01 0.25,-0.01 0.38,-0.03 0.08,-0.01 0.11,-0.04 0.17,-0.09 0.07,-0.04 0.13,-0.09 0.19,-0.15 0.01,-0.04 0.04,-0.07 0.08,-0.1 0.09,0.09 0.16,0.3 0.3,0.32 0.07,0.01 0.15,0 0.22,0 0.08,0 0.16,-0.01 0.25,-0.02 0.09,-0.02 0.19,-0.04 0.27,-0.05 0.12,-0.01 0.23,0.01 0.34,0.03 0.09,0.02 0.19,0.05 0.28,0.06 0.08,0.01 0.17,-0.01 0.25,-0.03 0.06,-0.01 0.11,-0.02 0.17,-0.01 0.08,0 0.14,0.03 0.21,0.04 0.23,0.03 0.45,0.13 0.67,0.18 0.07,0.02 0.12,0.04 0.19,0.03 0.07,0 0.13,-0.02 0.2,-0.02 0.16,0.01 0.33,0.01 0.49,0 0.06,0 0.1,-0.01 0.15,-0.03 0.13,-0.03 0.3,-0.02 0.44,-0.01 0.33,0 0.71,-0.04 1.04,0.02 0.28,0.05 0.57,0.04 0.86,0.05 0.28,0.01 0.55,0.07 0.83,0.07 0.2,0 0.4,-0.02 0.59,-0.05 0.09,-0.02 0.18,-0.02 0.27,-0.02 0.07,0 0.17,0.02 0.23,0 0.04,-0.01 0.1,-0.12 0.14,-0.12 0.16,-0.01 0.32,-0.03 0.47,-0.04 0.06,-0.01 0.14,0 0.19,-0.02 0.05,-0.02 0.07,-0.05 0.09,-0.09 0.02,-0.05 0.02,-0.18 0.09,-0.21 0.05,0.04 0.06,0.07 0.06,0.12 0.01,0.04 0.03,0.09 0.03,0.13 0.01,0.04 -0.01,0.09 0.01,0.13 0.08,0 0.15,0.02 0.23,0.04 0.1,0.01 0.19,0.02 0.29,0.04 0.1,0.02 0.2,0.08 0.29,0.05 0.04,-0.01 0.08,-0.02 0.11,-0.03 0.11,-0.02 0.24,0 0.35,0.01 0.14,0.01 0.28,0.03 0.42,0.04 0.1,0 0.2,-0.03 0.29,-0.04 0.13,-0.01 0.26,-0.04 0.38,-0.05l-1.19 -0.52 -0.93 -1.84 -0.69 -0.95 -1.57 -1.61 3 2.19 1.09 1.5 2.16 1.13c0.05,-0.02 0.1,-0.04 0.16,-0.05 0.13,-0.03 0.21,-0.03 0.33,-0.01 0.11,0.02 0.23,-0.01 0.35,-0.02 0.09,0 0.11,-0.06 0.13,-0.12 0.1,-0.24 0.05,-0.51 0.04,-0.76 -0.02,-0.21 -0.02,-0.41 -0.03,-0.62 -0.01,-0.07 0.01,-0.17 0,-0.24 -0.02,-0.03 -0.03,-0.05 -0.05,-0.08 -0.02,-0.06 -0.02,-0.12 -0.01,-0.17 0,-0.07 -0.01,-0.13 0,-0.2 0,-0.11 0.03,-0.22 0.06,-0.33 0.01,-0.03 0.04,-0.17 0.07,-0.18 0.08,0.53 -0.01,1.06 0.05,1.58 0.02,0.17 0.08,0.32 0.11,0.49 0.03,0.15 0.01,0.3 0.04,0.45 0.03,0.14 0.07,0.27 0.24,0.33 0.07,0.02 0.14,-0.01 0.21,-0.02 0.08,-0.01 0.16,-0.01 0.24,-0.01 0.28,0 0.55,0.04 0.83,0.06 0.14,0.01 0.29,0.03 0.42,0.06 0.07,0.03 0.15,0.05 0.23,0.04 0.1,0 0.2,-0.01 0.3,-0.01 0.12,-0.01 0.23,-0.03 0.34,-0.06 0.19,-0.05 0.38,-0.08 0.57,-0.09 0.17,-0.01 0.34,0 0.51,0.03 0.05,0.01 0.1,0.02 0.15,0.02 0.03,0 0.06,-0.01 0.09,-0.02 0.14,-0.03 0.28,-0.04 0.42,-0.04 0.06,0 0.5,-0.08 0.52,0.01 0,-0.59 0.08,-1.28 -0.08,-1.85 -0.05,-0.17 -0.1,-0.21 -0.23,-0.36 -0.03,-0.1 -0.09,-0.16 -0.19,-0.2 -0.06,0.01 -0.09,-0.02 -0.1,-0.08 -0.09,-0.14 0,-0.2 0.03,-0.34 0.04,-0.17 0.01,-0.43 0,-0.6 0.01,-0.14 -0.02,-0.27 -0.08,-0.39 -0.03,-0.08 -0.08,-0.13 -0.17,-0.15 -0.16,-0.2 -0.27,-0.47 -0.32,-0.71 0.15,-0.01 0.34,0.05 0.47,0 0.19,-0.06 0.17,-0.11 0.18,-0.31 0.02,-0.49 -0.02,-0.97 -0.01,-1.46 0.02,-0.68 0.15,-1.37 0.18,-2.06 0,-0.23 -0.02,-0.47 0,-0.7 0.02,-0.29 0.11,-0.57 0.14,-0.86 0.11,-0.87 -0.05,-1.72 0.19,-2.58 0.14,-0.52 -0.08,-0.98 -0.2,-1.5 -0.18,-0.79 -0.23,-1.68 -0.06,-2.48 0.08,-0.34 0.2,-0.7 0.17,-1.04 -0.11,-0.86 -0.43,-1.7 -0.42,-2.57 0.02,-1.18 0.49,-2.32 0.66,-3.49 0.13,-0.89 -0.12,-1.81 -0.21,-2.69 -0.07,-0.78 -0.04,-1.57 -0.03,-2.35 0.01,-0.35 -0.06,-0.67 -0.14,-1.01 -0.08,-0.3 -0.19,-0.28 -0.19,-0.59l0 -1.75c0,-0.89 -0.05,-1.81 0.06,-2.7 0.07,-0.53 0,-1.08 0.02,-1.61 0.01,-0.23 0.17,-0.38 0.18,-0.63 0.01,-0.26 -0.08,-0.49 -0.09,-0.75 -0.02,-0.25 -0.01,-0.47 -0.09,-0.71 -0.05,-0.17 -0.09,-0.32 -0.09,-0.49 0.01,-0.32 0.01,-0.65 0.01,-0.98 0,-0.26 0.07,-0.49 0.17,-0.74 0.15,-0.38 0.05,-0.79 0.08,-1.19 0.03,-0.28 0.14,-0.55 0.17,-0.83 0.02,-0.28 -0.03,-0.57 -0.01,-0.86 0.01,-0.15 0.15,-0.24 0.17,-0.38 0.01,-0.15 -0.33,-0.61 -0.35,-0.64 -0.11,-0.17 -0.06,-0.51 -0.21,-0.66 0.16,-0.09 0.35,-0.25 0.4,-0.37 0.07,-0.16 -0.01,-0.48 -0.01,-0.65 0,-0.16 0.02,-0.33 0.01,-0.5 -0.02,-0.26 -0.24,-0.6 -0.16,-0.86 0.07,-0.18 0.18,-0.33 0.24,-0.53 0.09,-0.31 0.15,-0.7 0.07,-1.01 -0.14,0 -0.3,0.16 -0.43,0.2 -0.13,0.05 -0.29,0.06 -0.44,0.08 -0.59,0.06 -1.17,-0.08 -1.76,-0.06 -0.33,0 -0.6,-0.05 -0.92,-0.14 -0.25,-0.08 -0.34,-0.08 -0.61,-0.04 -0.58,0.1 -1.07,0.1 -1.66,0.1 -0.43,0 -0.81,0.04 -1.23,0.14 -0.31,0.08 -0.6,0.16 -0.92,0.16 -0.8,-0.01 -1.59,-0.17 -2.4,-0.16 -0.28,0.01 -0.53,-0.03 -0.81,-0.08 -0.52,-0.09 -1.05,-0.2 -1.58,-0.2 -0.4,0 -0.72,-0.36 -1.06,-0.14 -0.01,0.11 -0.11,0.2 -0.15,0.31 -0.03,0.12 -0.01,0.24 -0.01,0.35 0,0.23 0.17,0.33 0.25,0.54 0.37,-0.08 0.91,-0.01 1.19,0.23 0.21,0.18 0.13,0.24 0.02,0.42 -0.18,0.31 -0.38,0.64 -0.47,0.98 -0.06,0.19 -0.09,0.36 -0.09,0.55 0.01,0.15 -0.05,0.38 0.01,0.51 0.11,0.07 0.2,0.16 0.29,0.24 0.06,0.12 0.12,0.23 0.15,0.35 0.18,0.36 0.33,0.64 0.31,1.05 -0.09,-0.29 -0.21,-0.55 -0.38,-0.81 -0.19,-0.32 -0.32,-0.66 -0.46,-1.01 -0.1,-0.29 -0.33,-0.63 -0.34,-0.94 -0.03,-0.44 0.13,-0.86 0.39,-1.22 -0.37,0 -0.75,0.01 -1.13,-0.02 -0.29,-0.03 -0.3,-0.03 -0.39,-0.24 -0.12,-0.23 -0.23,-0.48 -0.34,-0.71 -0.03,-0.06 -0.09,-0.26 -0.13,-0.29 -0.13,-0.1 -0.37,0.09 -0.48,0.15 -0.21,0.12 -0.38,0.2 -0.63,0.2 -0.34,0 -0.68,-0.09 -1.02,-0.07 -0.41,0.02 -0.85,0.04 -1.25,0.11 -0.4,0.07 -0.94,0.22 -1.3,0.02 -0.29,-0.17 -0.45,-0.47 -0.73,-0.65 -0.16,-0.09 -0.23,-0.03 -0.39,0.03 -0.3,0.11 -0.65,0.19 -0.96,0.26 -0.26,0.06 -0.54,-0.01 -0.81,0.03 -0.15,0.02 -0.3,0.07 -0.46,0.09 -0.16,0.02 -0.36,0.01 -0.51,0.08 -0.11,0.05 -0.18,0.15 -0.28,0.21 -0.44,0.24 -1.23,0.07 -1.71,0 -0.35,-0.06 -0.7,-0.14 -1.06,-0.17 -0.08,-0.01 -0.13,-0.03 -0.21,-0.01 -0.25,0.05 -0.23,-0.02 -0.41,0.14 -0.37,0.04 -0.58,0.34 -0.82,0.55 -0.24,0.19 -0.49,0.22 -0.81,0.23 -0.32,0.01 -0.73,0.06 -1.04,-0.02 -0.22,-0.05 -0.24,-0.17 -0.37,-0.3 -0.14,-0.14 -0.62,-0.18 -0.83,-0.23 -0.28,-0.07 -0.57,-0.15 -0.86,-0.19 -0.18,-0.03 -0.35,-0.06 -0.53,-0.03 -0.01,0.01 -0.06,0.05 -0.1,0.06 -1,0.3 -1.83,-0.66 -2.78,-0.78 -0.01,0.02 -0.01,0.05 -0.01,0.08 -0.73,0.19 -1.51,-0.03 -2.26,-0.01 -0.16,0 -0.28,0.04 -0.42,0.07 -0.06,0 -0.15,-0.02 -0.2,0.01 -0.25,0.12 -0.01,0.61 -0.09,0.82 -0.13,-0.22 0.05,-0.55 -0.08,-0.74 -0.04,-0.06 -0.22,-0.09 -0.27,-0.11 -0.33,-0.08 -0.71,-0.04 -1.05,-0.07 -0.23,-0.01 -0.43,-0.06 -0.64,-0.12 0.01,-0.04 -0.01,-0.06 -0.05,-0.07 -0.07,-0.01 -0.14,-0.02 -0.22,-0.02 -0.47,-0.05 -0.9,0.02 -1.37,0.02 -0.63,-0.01 -1.28,0.06 -1.9,-0.02 -0.33,-0.04 -0.49,-0.02 -0.81,0.08 -0.4,0.14 -0.82,0.28 -1.26,0.22 -0.24,-0.02 -0.42,-0.16 -0.65,-0.2 -0.22,-0.05 -0.48,-0.01 -0.71,-0.01 -0.67,-0.01 -1.5,0.21 -2.17,0.21 0,0.44 -0.08,0.93 0.03,1.36z"/>
 </g>
</svg>
